<svg width="14" height="10" viewBox="0 0 14 10" fill="none" xmlns="http://www.w3.org/2000/svg">
<path d="M4.75004 8.14995L2.12504 5.52494C2.0564 5.45546 1.97465 5.4003 1.88453 5.36265C1.79441 5.325 1.69771 5.30561 1.60004 5.30561C1.50237 5.30561 1.40568 5.325 1.31556 5.36265C1.22544 5.4003 1.14368 5.45546 1.07504 5.52494C1.00556 5.59359 0.950399 5.67534 0.912749 5.76546C0.8751 5.85558 0.855713 5.95228 0.855713 6.04994C0.855713 6.14761 0.8751 6.24431 0.912749 6.33443C0.950399 6.42455 1.00556 6.5063 1.07504 6.57494L4.21754 9.71745C4.51004 10.0099 4.98254 10.0099 5.27504 9.71745L13.225 1.77494C13.2945 1.7063 13.3497 1.62455 13.3873 1.53443C13.425 1.44431 13.4444 1.34761 13.4444 1.24994C13.4444 1.15228 13.425 1.05558 13.3873 0.965458C13.3497 0.875338 13.2945 0.793587 13.225 0.724945C13.1564 0.655465 13.0746 0.600301 12.9845 0.562652C12.8944 0.525002 12.7977 0.505615 12.7 0.505615C12.6024 0.505615 12.5057 0.525002 12.4156 0.562652C12.3254 0.600301 12.2437 0.655465 12.175 0.724945L4.75004 8.14995Z" fill="#FDFEFE"/>
</svg>
