<svg width="130" height="51" viewBox="0 0 130 51" fill="none" xmlns="http://www.w3.org/2000/svg">
<g clip-path="url(#clip0_100_451)">
<g filter="url(#filter0_i_100_451)">
<path d="M30.0334 23.9627C29.4674 24.5287 28.5497 24.5287 27.9837 23.9627L19.2724 15.2514C18.7064 14.6854 18.7064 13.7677 19.2724 13.2017L22.4751 9.99901C23.0411 9.43299 23.9588 9.43299 24.5248 9.99901L33.2361 18.7103C33.8021 19.2763 33.8021 20.194 33.2361 20.76L30.0334 23.9627Z" fill="#8CF52D"/>
</g>
<g filter="url(#filter1_i_100_451)">
<path d="M18.76 35.2361C18.194 35.8021 17.2763 35.8021 16.7102 35.2361L7.99896 26.5248C7.43295 25.9588 7.43295 25.0411 7.99896 24.4751L16.7102 15.7638C17.2763 15.1978 18.194 15.1978 18.76 15.7638L21.9626 18.9665C22.5287 19.5325 22.5287 20.4502 21.9626 21.0162L18.5038 24.4751C17.9377 25.0411 17.9377 25.9588 18.5038 26.5248L21.9626 29.9837C22.5287 30.5497 22.5287 31.4674 21.9626 32.0334L18.76 35.2361Z" fill="#20DCF1"/>
</g>
<g filter="url(#filter2_i_100_451)">
<path d="M19.2724 37.7984C18.7063 37.2323 18.7063 36.3147 19.2724 35.7486L22.9875 32.0335C23.5535 31.4675 23.5535 30.5498 22.9875 29.9838L19.5286 26.5249C18.9626 25.9589 18.9626 25.0412 19.5286 24.4752L22.475 21.5287C23.041 20.9627 23.9587 20.9627 24.5248 21.5287L27.9836 24.9876C28.5497 25.5537 29.4673 25.5537 30.0334 24.9876L33.7485 21.2725C34.3145 20.7065 35.2322 20.7065 35.7982 21.2725L39.0009 24.4752C39.5669 25.0412 39.5669 25.9589 39.0009 26.5249L24.5248 41.001C23.9587 41.5671 23.0411 41.5671 22.475 41.001L19.2724 37.7984Z" fill="#245BFD"/>
</g>
</g>
<path d="M49.8102 34.9517C49.6934 36.1202 49.0507 36.7532 47.8821 36.8506C47.3368 36.8506 46.8596 36.6753 46.4506 36.3247C46.0611 35.9547 45.8663 35.497 45.8663 34.9517V21.1043C45.8858 20.559 46.0903 20.1111 46.4798 19.7605C46.8694 19.3904 47.3368 19.2054 47.8821 19.2054H49.3136H52.9069H60.1227C60.2395 19.2054 60.3564 19.2152 60.4733 19.2346H60.6485C62.0119 19.2736 63.1317 19.5852 64.0081 20.1695C64.8845 20.7538 65.5175 21.4257 65.907 22.1852C66.2965 22.9253 66.4913 23.6751 66.4913 24.4347C66.4913 25.2137 66.2965 25.983 65.907 26.7426C65.537 27.4827 64.904 28.1448 64.0081 28.7291C63.1317 29.3134 62.0119 29.625 60.6485 29.664H55.5069C55.6627 30.6378 55.9841 31.3584 56.471 31.8258C56.9384 32.2932 57.5324 32.5269 58.253 32.5269H64.5632C65.1085 32.5464 65.5565 32.7509 65.907 33.1404C66.2771 33.5299 66.4621 33.9973 66.4621 34.5427C66.4426 35.0685 66.2479 35.5165 65.8778 35.8865C65.5272 36.2371 65.089 36.4221 64.5632 36.4416H57.7272C56.2859 36.461 54.9811 35.8962 53.8125 34.7472C52.644 33.5981 51.9331 32.2348 51.6799 30.6572C51.3293 28.9044 51.154 27.9209 51.154 27.7066C51.154 27.1613 51.3391 26.7036 51.7091 26.3336C52.0986 25.9441 52.5661 25.7493 53.1114 25.7493H60.8238C61.1939 25.7298 61.4957 25.6519 61.7295 25.5156C61.9826 25.3598 62.1677 25.1943 62.2845 25.019C62.4014 24.8242 62.4598 24.6295 62.4598 24.4347C62.4598 24.2399 62.4014 24.0549 62.2845 23.8796C62.1677 23.6849 61.9826 23.5193 61.7295 23.383C61.4957 23.2272 61.1939 23.1395 60.8238 23.1201H52.9069H50.5698C50.0634 23.1395 49.8102 23.3927 49.8102 23.8796V34.9517ZM78.9656 36.9382C77.9529 36.9382 76.9498 36.8214 75.9566 36.5876C74.9828 36.3539 74.0479 36.0131 73.1521 35.5652C72.2562 35.0977 71.4674 34.4842 70.7857 33.7247C70.1041 32.9651 69.734 32.0595 69.6756 31.0078V29.7808V24.7853C69.6756 24.2399 69.8704 23.792 70.2599 23.4414C70.6689 23.0714 71.146 22.8864 71.6914 22.8864C72.8599 22.9837 73.4929 23.6167 73.5903 24.7853V26.0707V30.1022C73.6292 30.7059 73.8532 31.2123 74.2622 31.6213C74.6906 32.0108 75.1581 32.3224 75.6644 32.5561C76.1903 32.7898 76.7259 32.9651 77.2712 33.082C77.836 33.1988 78.4008 33.2573 78.9656 33.2573C79.5304 33.2573 80.0855 33.1988 80.6308 33.082C81.1956 32.9651 81.7312 32.7898 82.2375 32.5561C82.7634 32.3224 83.2308 32.0108 83.6398 31.6213C84.0683 31.2123 84.302 30.7059 84.3409 30.1022V26.0707V24.7853C84.3409 24.2399 84.5357 23.792 84.9252 23.4414C85.3342 23.0714 85.8114 22.8864 86.3567 22.8864C87.5252 22.9837 88.168 23.6167 88.2848 24.7853V29.7808V31.0078C88.2264 32.0595 87.8466 32.9651 87.1455 33.7247C86.4638 34.4842 85.675 35.0977 84.7791 35.5652C83.8833 36.0131 82.9387 36.3539 81.9454 36.5876C80.9716 36.8214 79.9783 36.9382 78.9656 36.9382ZM98.2175 22.7403C98.8992 22.7403 99.5613 22.8571 100.204 23.0909C100.866 23.3246 101.499 23.6654 102.103 24.1133C102.2 24.2107 102.307 24.3081 102.424 24.4055C102.522 24.3081 102.629 24.2107 102.746 24.1133C103.349 23.6654 103.973 23.3246 104.615 23.0909C105.278 22.8571 105.94 22.7403 106.602 22.7403C107.284 22.7403 107.946 22.8571 108.588 23.0909C109.251 23.3246 109.874 23.6751 110.458 24.1426C111.062 24.5905 111.588 25.1943 112.036 25.9538C112.503 26.7134 112.737 27.619 112.737 28.6707V34.8932C112.62 36.0618 111.977 36.6948 110.809 36.7921C110.263 36.7921 109.786 36.6169 109.377 36.2663C108.988 35.8962 108.793 35.4386 108.793 34.8932V28.9044C108.793 28.437 108.705 28.0475 108.53 27.7359C108.355 27.4048 108.16 27.1516 107.946 26.9763C107.731 26.7815 107.507 26.6452 107.274 26.5673C107.04 26.4699 106.806 26.4212 106.573 26.4212C106.339 26.4212 106.105 26.4699 105.872 26.5673C105.657 26.6452 105.443 26.7815 105.229 26.9763C105.015 27.1516 104.82 27.4048 104.645 27.7359C104.469 28.0475 104.372 28.437 104.352 28.9044V34.8932C104.236 36.0618 103.593 36.6948 102.424 36.7921C101.879 36.7921 101.402 36.6169 100.993 36.2663C100.603 35.8962 100.409 35.4386 100.409 34.8932V28.9044C100.409 28.437 100.321 28.0475 100.146 27.7359C99.9703 27.4048 99.7756 27.1516 99.5613 26.9763C99.3471 26.7815 99.1231 26.6452 98.8894 26.5673C98.6557 26.4699 98.422 26.4212 98.1883 26.4212C97.9546 26.4212 97.7209 26.4699 97.4872 26.5673C97.2729 26.6452 97.0587 26.7815 96.8445 26.9763C96.6302 27.1516 96.4355 27.4048 96.2602 27.7359C96.0849 28.0475 95.9875 28.437 95.968 28.9044V34.8932C95.8707 36.0618 95.2377 36.6948 94.0691 36.7921C93.5238 36.7921 93.0467 36.6169 92.6377 36.2663C92.2481 35.8962 92.0534 35.4386 92.0534 34.8932V28.6707C92.0923 27.619 92.3358 26.7134 92.7837 25.9538C93.2317 25.1943 93.7575 24.5905 94.3613 24.1426C94.965 23.6751 95.5883 23.3246 96.231 23.0909C96.8931 22.8571 97.5553 22.7403 98.2175 22.7403ZM118.375 22.8864C118.901 22.9058 119.349 23.1006 119.719 23.4706C120.089 23.8212 120.284 24.2594 120.303 24.7853V34.8932C120.186 36.0618 119.544 36.6948 118.375 36.7921C117.83 36.7921 117.353 36.6169 116.944 36.2663C116.554 35.8962 116.359 35.4386 116.359 34.8932V24.7853C116.379 24.2399 116.583 23.792 116.973 23.4414C117.362 23.0714 117.83 22.8864 118.375 22.8864ZM115.921 19.0886C115.921 18.5432 116.155 18.0758 116.622 17.6863C117.09 17.2968 117.654 17.102 118.317 17.102C118.979 17.102 119.544 17.2968 120.011 17.6863C120.478 18.0758 120.712 18.5432 120.712 19.0886C120.712 19.6534 120.478 20.1305 120.011 20.52C119.544 20.9096 118.979 21.1043 118.317 21.1043C117.654 21.1043 117.09 20.9096 116.622 20.52C116.155 20.1305 115.921 19.6534 115.921 19.0886Z" fill="white"/>
<defs>
<filter id="filter0_i_100_451" x="18.8479" y="9.57446" width="15.0465" height="15.7476" filterUnits="userSpaceOnUse" color-interpolation-filters="sRGB">
<feFlood flood-opacity="0" result="BackgroundImageFix"/>
<feBlend mode="normal" in="SourceGraphic" in2="BackgroundImageFix" result="shape"/>
<feColorMatrix in="SourceAlpha" type="matrix" values="0 0 0 0 0 0 0 0 0 0 0 0 0 0 0 0 0 0 127 0" result="hardAlpha"/>
<feOffset dx="0.233711" dy="0.934842"/>
<feGaussianBlur stdDeviation="0.467421"/>
<feComposite in2="hardAlpha" operator="arithmetic" k2="-1" k3="1"/>
<feColorMatrix type="matrix" values="0 0 0 0 0.401387 0 0 0 0 0.796667 0 0 0 0 0.0365139 0 0 0 1 0"/>
<feBlend mode="normal" in2="shape" result="effect1_innerShadow_100_451"/>
</filter>
<filter id="filter1_i_100_451" x="7.57446" y="15.3394" width="15.0465" height="21.0224" filterUnits="userSpaceOnUse" color-interpolation-filters="sRGB">
<feFlood flood-opacity="0" result="BackgroundImageFix"/>
<feBlend mode="normal" in="SourceGraphic" in2="BackgroundImageFix" result="shape"/>
<feColorMatrix in="SourceAlpha" type="matrix" values="0 0 0 0 0 0 0 0 0 0 0 0 0 0 0 0 0 0 127 0" result="hardAlpha"/>
<feOffset dx="0.233711" dy="0.701132"/>
<feGaussianBlur stdDeviation="0.467421"/>
<feComposite in2="hardAlpha" operator="arithmetic" k2="-1" k3="1"/>
<feColorMatrix type="matrix" values="0 0 0 0 0.0409722 0 0 0 0 0.753718 0 0 0 0 0.833333 0 0 0 1 0"/>
<feBlend mode="normal" in2="shape" result="effect1_innerShadow_100_451"/>
</filter>
<filter id="filter2_i_100_451" x="18.8479" y="20.8479" width="20.8112" height="21.2788" filterUnits="userSpaceOnUse" color-interpolation-filters="sRGB">
<feFlood flood-opacity="0" result="BackgroundImageFix"/>
<feBlend mode="normal" in="SourceGraphic" in2="BackgroundImageFix" result="shape"/>
<feColorMatrix in="SourceAlpha" type="matrix" values="0 0 0 0 0 0 0 0 0 0 0 0 0 0 0 0 0 0 127 0" result="hardAlpha"/>
<feOffset dx="0.233711" dy="0.701132"/>
<feGaussianBlur stdDeviation="0.467421"/>
<feComposite in2="hardAlpha" operator="arithmetic" k2="-1" k3="1"/>
<feColorMatrix type="matrix" values="0 0 0 0 0.0415556 0 0 0 0 0.260823 0 0 0 0 0.906667 0 0 0 1 0"/>
<feBlend mode="normal" in2="shape" result="effect1_innerShadow_100_451"/>
</filter>
<clipPath id="clip0_100_451">
<rect width="23.371" height="23.371" fill="white" transform="translate(6.97412 25.5) rotate(-45)"/>
</clipPath>
</defs>
</svg>
