<svg width="130" height="52" viewBox="0 0 130 52" fill="none" xmlns="http://www.w3.org/2000/svg">
<g clip-path="url(#clip0_244_822)">
<g filter="url(#filter0_i_244_822)">
<path d="M30.2092 24.4214C29.6279 25.0026 28.6855 25.0026 28.1043 24.4214L19.1586 15.4757C18.5773 14.8944 18.5773 13.952 19.1586 13.3708L22.4474 10.0819C23.0287 9.50068 23.9711 9.50068 24.5523 10.0819L33.498 19.0277C34.0793 19.6089 34.0793 20.5513 33.498 21.1325L30.2092 24.4214Z" fill="#8CF52D"/>
</g>
<g filter="url(#filter1_i_244_822)">
<path d="M18.6325 35.9982C18.0513 36.5794 17.1089 36.5794 16.5276 35.9982L7.58192 27.0525C7.00067 26.4712 7.00067 25.5288 7.58192 24.9476L16.5276 16.0019C17.1089 15.4206 18.0513 15.4206 18.6325 16.0019L21.9214 19.2907C22.5026 19.872 22.5026 20.8144 21.9214 21.3956L18.3694 24.9476C17.7882 25.5288 17.7882 26.4712 18.3694 27.0525L21.9214 30.6044C22.5026 31.1857 22.5026 32.1281 21.9214 32.7093L18.6325 35.9982Z" fill="#20DCF1"/>
</g>
<g filter="url(#filter2_i_244_822)">
<path d="M19.1585 38.6293C18.5773 38.048 18.5773 37.1056 19.1585 36.5244L22.9736 32.7093C23.5548 32.1281 23.5548 31.1857 22.9736 30.6044L19.4216 27.0525C18.8404 26.4712 18.8404 25.5288 19.4216 24.9476L22.4474 21.9218C23.0286 21.3406 23.971 21.3406 24.5523 21.9218L28.1042 25.4738C28.6855 26.055 29.6279 26.055 30.2091 25.4738L34.0242 21.6587C34.6054 21.0775 35.5478 21.0775 36.1291 21.6587L39.4179 24.9476C39.9992 25.5288 39.9992 26.4712 39.4179 27.0525L24.5523 41.9181C23.971 42.4994 23.0286 42.4994 22.4474 41.9181L19.1585 38.6293Z" fill="#245BFD"/>
</g>
</g>
<path d="M50.255 35.4517C50.1382 36.6202 49.4955 37.2532 48.3269 37.3506C47.7816 37.3506 47.3044 37.1753 46.8954 36.8247C46.5059 36.4547 46.3112 35.997 46.3112 35.4517V21.6043C46.3306 21.059 46.5351 20.6111 46.9247 20.2605C47.3142 19.8904 47.7816 19.7054 48.3269 19.7054H49.7584H53.3517H60.5675C60.6844 19.7054 60.8012 19.7152 60.9181 19.7346H61.0934C62.4567 19.7736 63.5765 20.0852 64.453 20.6695C65.3294 21.2538 65.9623 21.9257 66.3518 22.6852C66.7414 23.4253 66.9361 24.1751 66.9361 24.9347C66.9361 25.7137 66.7414 26.483 66.3518 27.2426C65.9818 27.9827 65.3488 28.6448 64.453 29.2291C63.5765 29.8134 62.4567 30.125 61.0934 30.164H55.9517C56.1075 31.1378 56.4289 31.8584 56.9158 32.3258C57.3832 32.7932 57.9772 33.0269 58.6978 33.0269H65.008C65.5533 33.0464 66.0013 33.2509 66.3518 33.6404C66.7219 34.0299 66.9069 34.4973 66.9069 35.0427C66.8874 35.5685 66.6927 36.0165 66.3226 36.3865C65.9721 36.7371 65.5339 36.9221 65.008 36.9416H58.172C56.7308 36.961 55.4259 36.3962 54.2573 35.2472C53.0888 34.0981 52.3779 32.7348 52.1247 31.1572C51.7742 29.4044 51.5989 28.4209 51.5989 28.2066C51.5989 27.6613 51.7839 27.2036 52.1539 26.8336C52.5435 26.4441 53.0109 26.2493 53.5562 26.2493H61.2686C61.6387 26.2298 61.9406 26.1519 62.1743 26.0156C62.4275 25.8598 62.6125 25.6943 62.7293 25.519C62.8462 25.3242 62.9046 25.1295 62.9046 24.9347C62.9046 24.7399 62.8462 24.5549 62.7293 24.3796C62.6125 24.1849 62.4275 24.0193 62.1743 23.883C61.9406 23.7272 61.6387 23.6395 61.2686 23.6201H53.3517H51.0146C50.5082 23.6395 50.255 23.8927 50.255 24.3796V35.4517ZM79.4104 37.4382C78.3977 37.4382 77.3947 37.3214 76.4014 37.0876C75.4276 36.8539 74.4928 36.5131 73.5969 36.0652C72.701 35.5977 71.9122 34.9842 71.2306 34.2247C70.5489 33.4651 70.1789 32.5595 70.1204 31.5078V30.2808V25.2853C70.1204 24.7399 70.3152 24.292 70.7047 23.9414C71.1137 23.5714 71.5909 23.3864 72.1362 23.3864C73.3047 23.4837 73.9377 24.1167 74.0351 25.2853V26.5707V30.6022C74.074 31.2059 74.298 31.7123 74.707 32.1213C75.1355 32.5108 75.6029 32.8224 76.1093 33.0561C76.6351 33.2898 77.1707 33.4651 77.716 33.582C78.2808 33.6988 78.8456 33.7573 79.4104 33.7573C79.9752 33.7573 80.5303 33.6988 81.0756 33.582C81.6404 33.4651 82.176 33.2898 82.6824 33.0561C83.2082 32.8224 83.6756 32.5108 84.0846 32.1213C84.5131 31.7123 84.7468 31.2059 84.7858 30.6022V26.5707V25.2853C84.7858 24.7399 84.9805 24.292 85.37 23.9414C85.779 23.5714 86.2562 23.3864 86.8015 23.3864C87.9701 23.4837 88.6128 24.1167 88.7296 25.2853V30.2808V31.5078C88.6712 32.5595 88.2914 33.4651 87.5903 34.2247C86.9086 34.9842 86.1199 35.5977 85.224 36.0652C84.3281 36.5131 83.3835 36.8539 82.3902 37.0876C81.4164 37.3214 80.4232 37.4382 79.4104 37.4382ZM98.6623 23.2403C99.344 23.2403 100.006 23.3571 100.649 23.5909C101.311 23.8246 101.944 24.1654 102.548 24.6133C102.645 24.7107 102.752 24.8081 102.869 24.9055C102.966 24.8081 103.074 24.7107 103.19 24.6133C103.794 24.1654 104.417 23.8246 105.06 23.5909C105.722 23.3571 106.385 23.2403 107.047 23.2403C107.728 23.2403 108.391 23.3571 109.033 23.5909C109.695 23.8246 110.319 24.1751 110.903 24.6426C111.507 25.0905 112.033 25.6943 112.48 26.4538C112.948 27.2134 113.182 28.119 113.182 29.1707V35.3932C113.065 36.5618 112.422 37.1948 111.253 37.2921C110.708 37.2921 110.231 37.1169 109.822 36.7663C109.432 36.3962 109.238 35.9386 109.238 35.3932V29.4044C109.238 28.937 109.15 28.5475 108.975 28.2359C108.8 27.9048 108.605 27.6516 108.391 27.4763C108.176 27.2815 107.952 27.1452 107.719 27.0673C107.485 26.9699 107.251 26.9212 107.017 26.9212C106.784 26.9212 106.55 26.9699 106.316 27.0673C106.102 27.1452 105.888 27.2815 105.674 27.4763C105.459 27.6516 105.265 27.9048 105.089 28.2359C104.914 28.5475 104.817 28.937 104.797 29.4044V35.3932C104.68 36.5618 104.038 37.1948 102.869 37.2921C102.324 37.2921 101.847 37.1169 101.438 36.7663C101.048 36.3962 100.853 35.9386 100.853 35.3932V29.4044C100.853 28.937 100.766 28.5475 100.59 28.2359C100.415 27.9048 100.22 27.6516 100.006 27.4763C99.7919 27.2815 99.568 27.1452 99.3342 27.0673C99.1005 26.9699 98.8668 26.9212 98.6331 26.9212C98.3994 26.9212 98.1657 26.9699 97.932 27.0673C97.7177 27.1452 97.5035 27.2815 97.2893 27.4763C97.075 27.6516 96.8803 27.9048 96.705 28.2359C96.5297 28.5475 96.4323 28.937 96.4129 29.4044V35.3932C96.3155 36.5618 95.6825 37.1948 94.514 37.2921C93.9686 37.2921 93.4915 37.1169 93.0825 36.7663C92.693 36.3962 92.4982 35.9386 92.4982 35.3932V29.1707C92.5372 28.119 92.7806 27.2134 93.2286 26.4538C93.6765 25.6943 94.2024 25.0905 94.8061 24.6426C95.4099 24.1751 96.0331 23.8246 96.6758 23.5909C97.338 23.3571 98.0001 23.2403 98.6623 23.2403ZM118.82 23.3864C119.346 23.4058 119.794 23.6006 120.164 23.9706C120.534 24.3212 120.728 24.7594 120.748 25.2853V35.3932C120.631 36.5618 119.988 37.1948 118.82 37.2921C118.275 37.2921 117.797 37.1169 117.388 36.7663C116.999 36.3962 116.804 35.9386 116.804 35.3932V25.2853C116.824 24.7399 117.028 24.292 117.418 23.9414C117.807 23.5714 118.275 23.3864 118.82 23.3864ZM116.366 19.5886C116.366 19.0432 116.6 18.5758 117.067 18.1863C117.534 17.7968 118.099 17.602 118.761 17.602C119.424 17.602 119.988 17.7968 120.456 18.1863C120.923 18.5758 121.157 19.0432 121.157 19.5886C121.157 20.1534 120.923 20.6305 120.456 21.02C119.988 21.4096 119.424 21.6043 118.761 21.6043C118.099 21.6043 117.534 21.4096 117.067 21.02C116.6 20.6305 116.366 20.1534 116.366 19.5886Z" fill="#222734"/>
<defs>
<filter id="filter0_i_244_822" x="18.7227" y="9.646" width="15.4514" height="16.1713" filterUnits="userSpaceOnUse" color-interpolation-filters="sRGB">
<feFlood flood-opacity="0" result="BackgroundImageFix"/>
<feBlend mode="normal" in="SourceGraphic" in2="BackgroundImageFix" result="shape"/>
<feColorMatrix in="SourceAlpha" type="matrix" values="0 0 0 0 0 0 0 0 0 0 0 0 0 0 0 0 0 0 127 0" result="hardAlpha"/>
<feOffset dx="0.24" dy="0.96"/>
<feGaussianBlur stdDeviation="0.48"/>
<feComposite in2="hardAlpha" operator="arithmetic" k2="-1" k3="1"/>
<feColorMatrix type="matrix" values="0 0 0 0 0.401387 0 0 0 0 0.796667 0 0 0 0 0.0365139 0 0 0 1 0"/>
<feBlend mode="normal" in2="shape" result="effect1_innerShadow_244_822"/>
</filter>
<filter id="filter1_i_244_822" x="7.146" y="15.5659" width="15.4514" height="21.5882" filterUnits="userSpaceOnUse" color-interpolation-filters="sRGB">
<feFlood flood-opacity="0" result="BackgroundImageFix"/>
<feBlend mode="normal" in="SourceGraphic" in2="BackgroundImageFix" result="shape"/>
<feColorMatrix in="SourceAlpha" type="matrix" values="0 0 0 0 0 0 0 0 0 0 0 0 0 0 0 0 0 0 127 0" result="hardAlpha"/>
<feOffset dx="0.24" dy="0.72"/>
<feGaussianBlur stdDeviation="0.48"/>
<feComposite in2="hardAlpha" operator="arithmetic" k2="-1" k3="1"/>
<feColorMatrix type="matrix" values="0 0 0 0 0.0409722 0 0 0 0 0.753718 0 0 0 0 0.833333 0 0 0 1 0"/>
<feBlend mode="normal" in2="shape" result="effect1_innerShadow_244_822"/>
</filter>
<filter id="filter2_i_244_822" x="18.7227" y="21.2228" width="21.3713" height="21.8513" filterUnits="userSpaceOnUse" color-interpolation-filters="sRGB">
<feFlood flood-opacity="0" result="BackgroundImageFix"/>
<feBlend mode="normal" in="SourceGraphic" in2="BackgroundImageFix" result="shape"/>
<feColorMatrix in="SourceAlpha" type="matrix" values="0 0 0 0 0 0 0 0 0 0 0 0 0 0 0 0 0 0 127 0" result="hardAlpha"/>
<feOffset dx="0.24" dy="0.72"/>
<feGaussianBlur stdDeviation="0.48"/>
<feComposite in2="hardAlpha" operator="arithmetic" k2="-1" k3="1"/>
<feColorMatrix type="matrix" values="0 0 0 0 0.0415556 0 0 0 0 0.260823 0 0 0 0 0.906667 0 0 0 1 0"/>
<feBlend mode="normal" in2="shape" result="effect1_innerShadow_244_822"/>
</filter>
<clipPath id="clip0_244_822">
<rect width="24" height="24" fill="white" transform="translate(6.5293 26) rotate(-45)"/>
</clipPath>
</defs>
</svg>
