<svg width="35" height="34" viewBox="0 0 35 34" fill="none" xmlns="http://www.w3.org/2000/svg">
<g clip-path="url(#clip0_676_105)">
<g filter="url(#filter0_i_676_105)">
<path d="M24.2092 15.4214C23.6279 16.0027 22.6855 16.0027 22.1043 15.4214L13.1586 6.47572C12.5773 5.89447 12.5773 4.95209 13.1586 4.37084L16.4474 1.08197C17.0287 0.500725 17.9711 0.500726 18.5523 1.08197L27.498 10.0277C28.0793 10.6089 28.0793 11.5513 27.498 12.1326L24.2092 15.4214Z" fill="#8CF52D"/>
</g>
<g filter="url(#filter1_i_676_105)">
<path d="M12.6324 26.9982C12.0511 27.5795 11.1088 27.5795 10.5275 26.9982L1.5818 18.0525C1.00055 17.4713 1.00055 16.5289 1.5818 15.9476L10.5275 7.0019C11.1088 6.42065 12.0511 6.42065 12.6324 7.0019L15.9213 10.2908C16.5025 10.872 16.5025 11.8144 15.9213 12.3956L12.3693 15.9476C11.788 16.5289 11.788 17.4713 12.3693 18.0525L15.9213 21.6045C16.5025 22.1857 16.5025 23.1281 15.9213 23.7094L12.6324 26.9982Z" fill="#20DCF1"/>
</g>
<g filter="url(#filter2_i_676_105)">
<path d="M13.1586 29.6292C12.5774 29.048 12.5774 28.1056 13.1586 27.5243L16.9737 23.7093C17.555 23.128 17.555 22.1856 16.9737 21.6044L13.4217 18.0524C12.8405 17.4712 12.8405 16.5288 13.4217 15.9475L16.4475 12.9218C17.0287 12.3405 17.9711 12.3405 18.5524 12.9218L22.1044 16.4737C22.6856 17.055 23.628 17.055 24.2092 16.4737L28.0243 12.6587C28.6056 12.0774 29.5479 12.0774 30.1292 12.6587L33.4181 15.9475C33.9993 16.5288 33.9993 17.4712 33.4181 18.0524L18.5524 32.9181C17.9711 33.4993 17.0287 33.4993 16.4475 32.9181L13.1586 29.6292Z" fill="#245BFD"/>
</g>
</g>
<defs>
<filter id="filter0_i_676_105" x="12.7227" y="0.645996" width="15.4513" height="16.1714" filterUnits="userSpaceOnUse" color-interpolation-filters="sRGB">
<feFlood flood-opacity="0" result="BackgroundImageFix"/>
<feBlend mode="normal" in="SourceGraphic" in2="BackgroundImageFix" result="shape"/>
<feColorMatrix in="SourceAlpha" type="matrix" values="0 0 0 0 0 0 0 0 0 0 0 0 0 0 0 0 0 0 127 0" result="hardAlpha"/>
<feOffset dx="0.24" dy="0.96"/>
<feGaussianBlur stdDeviation="0.48"/>
<feComposite in2="hardAlpha" operator="arithmetic" k2="-1" k3="1"/>
<feColorMatrix type="matrix" values="0 0 0 0 0.401387 0 0 0 0 0.796667 0 0 0 0 0.0365139 0 0 0 1 0"/>
<feBlend mode="normal" in2="shape" result="effect1_innerShadow_676_105"/>
</filter>
<filter id="filter1_i_676_105" x="1.14587" y="6.56592" width="15.4513" height="21.5883" filterUnits="userSpaceOnUse" color-interpolation-filters="sRGB">
<feFlood flood-opacity="0" result="BackgroundImageFix"/>
<feBlend mode="normal" in="SourceGraphic" in2="BackgroundImageFix" result="shape"/>
<feColorMatrix in="SourceAlpha" type="matrix" values="0 0 0 0 0 0 0 0 0 0 0 0 0 0 0 0 0 0 127 0" result="hardAlpha"/>
<feOffset dx="0.24" dy="0.72"/>
<feGaussianBlur stdDeviation="0.48"/>
<feComposite in2="hardAlpha" operator="arithmetic" k2="-1" k3="1"/>
<feColorMatrix type="matrix" values="0 0 0 0 0.0409722 0 0 0 0 0.753718 0 0 0 0 0.833333 0 0 0 1 0"/>
<feBlend mode="normal" in2="shape" result="effect1_innerShadow_676_105"/>
</filter>
<filter id="filter2_i_676_105" x="12.7227" y="12.2228" width="21.3713" height="21.8512" filterUnits="userSpaceOnUse" color-interpolation-filters="sRGB">
<feFlood flood-opacity="0" result="BackgroundImageFix"/>
<feBlend mode="normal" in="SourceGraphic" in2="BackgroundImageFix" result="shape"/>
<feColorMatrix in="SourceAlpha" type="matrix" values="0 0 0 0 0 0 0 0 0 0 0 0 0 0 0 0 0 0 127 0" result="hardAlpha"/>
<feOffset dx="0.24" dy="0.72"/>
<feGaussianBlur stdDeviation="0.48"/>
<feComposite in2="hardAlpha" operator="arithmetic" k2="-1" k3="1"/>
<feColorMatrix type="matrix" values="0 0 0 0 0.0415556 0 0 0 0 0.260823 0 0 0 0 0.906667 0 0 0 1 0"/>
<feBlend mode="normal" in2="shape" result="effect1_innerShadow_676_105"/>
</filter>
<clipPath id="clip0_676_105">
<rect width="24" height="24" fill="white" transform="translate(0.529419 17) rotate(-45)"/>
</clipPath>
</defs>
</svg>
