<svg width="61" height="60" viewBox="0 0 61 60" fill="none" xmlns="http://www.w3.org/2000/svg">
<path d="M21.6172 22.1875C22.8125 22.2109 23.8789 22.5859 24.8164 23.3125C25.7539 24.0391 26.5039 24.9062 27.0664 25.9141C27.6523 26.9219 28.0859 27.9883 28.3672 29.1133C28.6484 30.2383 28.7891 31.3867 28.7891 32.5586C28.7891 34.1055 28.543 35.6289 28.0508 37.1289C27.582 38.6055 26.7969 39.918 25.6953 41.0664C24.6172 42.2148 23.2578 42.8359 21.6172 42.9297H10.4727C8.83203 42.8594 7.46094 42.25 6.35938 41.1016C5.25781 39.9531 4.47266 38.6289 4.00391 37.1289C3.55859 35.6289 3.33594 34.1055 3.33594 32.5586C3.33594 31.0117 3.57031 29.5 4.03906 28.0234C4.50781 26.5234 5.28125 25.1992 6.35938 24.0508C7.46094 22.8789 8.83203 22.2578 10.4727 22.1875H11.1406H20.9492H21.6172ZM20.4219 38.2188C21.3125 38.1719 22.0508 37.8438 22.6367 37.2344C23.2461 36.6016 23.6797 35.875 23.9375 35.0547C24.1953 34.2344 24.3242 33.4023 24.3242 32.5586C24.3242 31.7148 24.1836 30.8945 23.9023 30.0977C23.6445 29.2773 23.2227 28.5508 22.6367 27.918C22.0508 27.2852 21.3125 26.9453 20.4219 26.8984H11.5625C10.6719 26.9453 9.93359 27.2852 9.34766 27.918C8.76172 28.5508 8.32812 29.2773 8.04688 30.0977C7.78906 30.8945 7.66016 31.7148 7.66016 32.5586C7.66016 33.4023 7.78906 34.2344 8.04688 35.0547C8.30469 35.875 8.72656 36.6016 9.3125 37.2344C9.92188 37.8438 10.6719 38.1719 11.5625 38.2188H20.4219ZM35.442 31.0117C35.0436 30.4961 34.8795 29.9219 34.9498 29.2891C35.0436 28.6562 35.3483 28.1289 35.8639 27.707L42.7897 22.3281C43.3053 21.8594 43.8913 21.625 44.5475 21.625C45.1803 21.6484 45.7194 21.8828 46.1647 22.3281C46.61 22.75 46.8444 23.2773 46.8678 23.9102V41.1367C46.7272 42.543 45.9538 43.3047 44.5475 43.4219C43.8913 43.4219 43.317 43.2109 42.8248 42.7891C42.3561 42.3438 42.1217 41.793 42.1217 41.1367V28.832L38.7467 31.4336C38.2311 31.832 37.6569 31.9844 37.0241 31.8906C36.3678 31.8203 35.8405 31.5273 35.442 31.0117Z" fill="#011755"/>
</svg>
