<svg width="64" height="64" viewBox="0 0 64 64" fill="none" xmlns="http://www.w3.org/2000/svg">
<path d="M57.7264 6.70561C57.7053 6.60286 57.6552 6.50828 57.5822 6.43297C57.5093 6.35766 57.4164 6.30473 57.3144 6.28039C50.516 4.61669 34.8078 10.5454 26.2973 19.0602C24.7794 20.5672 23.3956 22.2038 22.1616 23.9514C19.5372 23.719 16.9128 23.913 14.6761 24.8889C8.36517 27.6691 6.52774 34.9234 6.01585 38.044C5.98682 38.2148 5.99777 38.39 6.04785 38.5559C6.09792 38.7217 6.18576 38.8737 6.30445 38.9998C6.42314 39.1259 6.56944 39.2227 6.73185 39.2827C6.89426 39.3426 7.06835 39.364 7.24043 39.3452L17.3748 38.2264C17.382 38.9912 17.4281 39.7551 17.5129 40.5152C17.5639 41.043 17.798 41.5363 18.1745 41.9093L22.099 45.8281C22.4721 46.2044 22.9647 46.4386 23.4918 46.4903C24.247 46.5747 25.0059 46.6209 25.7657 46.6285L24.6537 56.7594C24.6352 56.9316 24.6567 57.1058 24.7167 57.2682C24.7767 57.4306 24.8734 57.577 24.9993 57.6957C25.1253 57.8145 25.277 57.9024 25.4426 57.9526C25.6082 58.0028 25.7831 58.014 25.9537 57.9851C29.0657 57.4856 36.326 55.6464 39.0874 49.3297C40.0624 47.0909 40.2621 44.4769 40.0369 41.8628C41.7871 40.6276 43.4264 39.2422 44.9363 37.7222C53.4735 29.2201 59.3631 13.8484 57.7264 6.70561ZM36.4189 27.5797C35.6393 26.7999 35.1083 25.8063 34.8931 24.7244C34.6778 23.6425 34.7879 22.5211 35.2095 21.5019C35.6311 20.4826 36.3452 19.6115 37.2615 18.9985C38.1778 18.3856 39.2552 18.0585 40.3573 18.0585C41.4594 18.0585 42.5367 18.3856 43.453 18.9985C44.3693 19.6115 45.0834 20.4826 45.505 21.5019C45.9266 22.5211 46.0367 23.6425 45.8214 24.7244C45.6062 25.8063 45.0752 26.7999 44.2956 27.5797C43.7787 28.0978 43.1648 28.5089 42.489 28.7893C41.8132 29.0698 41.0888 29.2141 40.3573 29.2141C39.6257 29.2141 38.9013 29.0698 38.2255 28.7893C37.5497 28.5089 36.9358 28.0978 36.4189 27.5797Z" fill="#245BFD"/>
<path d="M21.05 49.9288C20.365 50.615 19.2663 50.8825 17.9438 51.1113C14.9725 51.6175 12.3487 49.05 12.8825 46.0463C13.0862 44.9075 13.6888 43.3113 14.0638 42.9363C14.1457 42.8559 14.2003 42.7517 14.2197 42.6386C14.2391 42.5254 14.2223 42.409 14.1718 42.3059C14.1213 42.2028 14.0396 42.1183 13.9383 42.0642C13.837 42.0102 13.7213 41.9895 13.6075 42.005C11.946 42.2083 10.4002 42.9616 9.21625 44.145C6.2775 47.0863 6 58 6 58C6 58 16.92 57.7225 19.8587 54.7813C21.0457 53.5982 21.8 52.0501 22 50.3863C22.0462 49.8638 21.41 49.5525 21.05 49.9288Z" fill="#83A4FF"/>
</svg>
