<svg width="64" height="64" viewBox="0 0 64 64" fill="none" xmlns="http://www.w3.org/2000/svg">
<path d="M58.8747 22.2587C58.5069 21.8812 58.0634 21.5858 57.5733 21.392V12.392C57.5733 11.8849 57.3719 11.3986 57.0133 11.04C56.6548 10.6815 56.1684 10.48 55.6613 10.48C55.1542 10.48 54.6679 10.6815 54.3093 11.04C53.9508 11.3986 53.7493 11.8849 53.7493 12.392V20.9333H53.1893C52.2931 17.9154 50.4462 15.2675 47.9236 13.384C45.401 11.5004 42.3376 10.4819 39.1893 10.48H25.1387C21.9904 10.4819 18.927 11.5004 16.4044 13.384C13.8818 15.2675 12.0349 17.9154 11.1387 20.9333H10.4V12.392C10.4 11.8849 10.1986 11.3986 9.83999 11.04C9.48142 10.6815 8.9951 10.48 8.488 10.48C7.98091 10.48 7.49458 10.6815 7.13601 11.04C6.77745 11.3986 6.576 11.8849 6.576 12.392V21.4187C6.10967 21.6169 5.68526 21.902 5.32534 22.2587C4.47909 23.1144 4.00309 24.2685 4 25.472V38.528C3.9993 39.1242 4.11622 39.7147 4.34406 40.2657C4.5719 40.8167 4.90619 41.3173 5.32778 41.7389C5.74938 42.1605 6.24999 42.4948 6.80097 42.7226C7.35194 42.9505 7.94245 43.0674 8.53867 43.0667H11.088C11.9842 46.0846 13.8311 48.7325 16.3537 50.6161C18.8763 52.4996 21.9398 53.5181 25.088 53.52H38.9093C42.0576 53.5181 45.121 52.4996 47.6436 50.6161C50.1662 48.7325 52.0131 46.0846 52.9093 43.0667H55.456C56.0522 43.0674 56.6427 42.9505 57.1937 42.7226C57.7447 42.4948 58.2453 42.1605 58.6669 41.7389C59.0885 41.3173 59.4228 40.8167 59.6506 40.2657C59.8785 39.7147 59.9954 39.1242 59.9947 38.528V25.472C60.048 24.2987 59.6453 23.1467 58.8747 22.2587ZM10.656 39.2427H8.64C8.44977 39.2442 8.26665 39.1704 8.13067 39.0373C8.00524 38.8967 7.93347 38.7164 7.928 38.528V25.472C7.92221 25.2899 7.98834 25.1128 8.1121 24.979C8.23587 24.8453 8.40731 24.7657 8.58934 24.7573H10.656C10.6444 24.8682 10.6444 24.9799 10.656 25.0907V38.9093C10.6444 39.0201 10.6444 39.1319 10.656 39.2427ZM23.176 30.928C22.872 31.23 22.4854 31.4351 22.0649 31.5175C21.6445 31.5999 21.209 31.5559 20.8135 31.391C20.4181 31.2261 20.0803 30.9477 19.843 30.5909C19.6057 30.2342 19.4793 29.8151 19.48 29.3867C19.48 28.808 19.7093 28.2533 20.1147 27.8427L22.664 25.2933C23.0704 24.8882 23.6208 24.6607 24.1947 24.6607C24.7685 24.6607 25.3189 24.8882 25.7253 25.2933L28.2747 27.8427C28.5782 28.1454 28.7851 28.5313 28.8691 28.9517C28.9531 29.3721 28.9105 29.8079 28.7465 30.204C28.5826 30.6001 28.3048 30.9386 27.9483 31.1767C27.5918 31.4148 27.1727 31.5417 26.744 31.5413C26.4614 31.5454 26.1808 31.4933 25.9184 31.388C25.6561 31.2827 25.4174 31.1264 25.216 30.928L24.1173 29.8347L23.176 30.928ZM38.9093 41.792C37.1099 43.5703 34.6819 44.5676 32.152 44.5676C29.6221 44.5676 27.1941 43.5703 25.3947 41.792C25.0409 41.4374 24.8208 40.9712 24.7719 40.4726C24.7229 39.9741 24.8482 39.474 25.1263 39.0573C25.4043 38.6406 25.8181 38.3331 26.2973 38.1871C26.7765 38.041 27.2914 38.0653 27.7547 38.256C28.0169 38.3661 28.2544 38.5275 28.4533 38.7307C29.4522 39.6761 30.7753 40.203 32.1507 40.203C33.526 40.203 34.8491 39.6761 35.848 38.7307C36.0476 38.5272 36.2858 38.3655 36.5486 38.2551C36.8114 38.1448 37.0936 38.0879 37.3787 38.0879C37.6637 38.0879 37.9459 38.1448 38.2087 38.2551C38.4716 38.3655 38.7097 38.5272 38.9093 38.7307C39.3145 39.1371 39.542 39.6875 39.542 40.2613C39.542 40.8352 39.3145 41.3856 38.9093 41.792ZM44.008 30.928C43.6016 31.3332 43.0512 31.5607 42.4773 31.5607C41.9035 31.5607 41.3531 31.3332 40.9467 30.928L39.8533 29.8347L38.7813 30.928C38.3707 31.3244 37.8214 31.5445 37.2507 31.5413C36.9676 31.5458 36.6865 31.4938 36.4237 31.3885C36.1609 31.2832 35.9217 31.1267 35.72 30.928C35.3121 30.5182 35.0831 29.9635 35.0831 29.3853C35.0831 28.8071 35.3121 28.2525 35.72 27.8427L38.272 25.2933C38.6783 24.889 39.2281 24.662 39.8013 24.662C40.3745 24.662 40.9244 24.889 41.3307 25.2933L43.88 27.8427C44.3163 28.2246 44.5831 28.7642 44.6216 29.3428C44.6601 29.9214 44.4672 30.4916 44.0853 30.928H44.008ZM56.2987 38.5787C56.2925 38.7674 56.2197 38.9478 56.0933 39.088C55.9574 39.2211 55.7742 39.2949 55.584 39.2933H53.5707C53.5823 39.1825 53.5823 39.0708 53.5707 38.96V24.9867C53.5821 24.8767 53.5821 24.7659 53.5707 24.656H55.6107C55.7008 24.6558 55.7901 24.6739 55.873 24.7092C55.956 24.7445 56.0309 24.7963 56.0933 24.8613C56.224 25 56.296 25.1813 56.2987 25.368V38.5787Z" fill="#245BFD"/>
</svg>
