<svg width="62" height="60" viewBox="0 0 62 60" fill="none" xmlns="http://www.w3.org/2000/svg">
<path d="M22.2838 22.1875C23.4791 22.2109 24.5455 22.5859 25.483 23.3125C26.4205 24.0391 27.1705 24.9062 27.733 25.9141C28.319 26.9219 28.7526 27.9883 29.0338 29.1133C29.3151 30.2383 29.4557 31.3867 29.4557 32.5586C29.4557 34.1055 29.2096 35.6289 28.7174 37.1289C28.2487 38.6055 27.4635 39.918 26.3619 41.0664C25.2838 42.2148 23.9244 42.8359 22.2838 42.9297H11.1393C9.49866 42.8594 8.12756 42.25 7.026 41.1016C5.92444 39.9531 5.13928 38.6289 4.67053 37.1289C4.22522 35.6289 4.00256 34.1055 4.00256 32.5586C4.00256 31.0117 4.23694 29.5 4.70569 28.0234C5.17444 26.5234 5.94788 25.1992 7.026 24.0508C8.12756 22.8789 9.49866 22.2578 11.1393 22.1875H11.8073H21.6158H22.2838ZM21.0885 38.2188C21.9791 38.1719 22.7174 37.8438 23.3033 37.2344C23.9127 36.6016 24.3463 35.875 24.6041 35.0547C24.8619 34.2344 24.9908 33.4023 24.9908 32.5586C24.9908 31.7148 24.8502 30.8945 24.569 30.0977C24.3112 29.2773 23.8893 28.5508 23.3033 27.918C22.7174 27.2852 21.9791 26.9453 21.0885 26.8984H12.2291C11.3385 26.9453 10.6002 27.2852 10.0143 27.918C9.42834 28.5508 8.99475 29.2773 8.7135 30.0977C8.45569 30.8945 8.32678 31.7148 8.32678 32.5586C8.32678 33.4023 8.45569 34.2344 8.7135 35.0547C8.97131 35.875 9.39319 36.6016 9.97913 37.2344C10.5885 37.8438 11.3385 38.1719 12.2291 38.2188H21.0885ZM33.6126 24.543C33.6126 23.8867 33.8352 23.3359 34.2805 22.8906C34.7493 22.4219 35.3118 22.1875 35.968 22.1875H49.5383C49.679 22.1875 49.8196 22.1992 49.9602 22.2227H50.1712C51.8118 22.2695 53.1594 22.6445 54.2141 23.3477C55.2688 24.0508 56.0305 24.8594 56.4993 25.7734C56.968 26.6641 57.2024 27.5664 57.2024 28.4805C57.2024 29.418 56.968 30.3438 56.4993 31.2578C56.054 32.1484 55.2923 32.9453 54.2141 33.6484C53.1594 34.3516 51.8118 34.7266 50.1712 34.7734H40.1868C39.7415 34.7969 39.3665 34.9023 39.0618 35.0898C38.7805 35.2773 38.5696 35.5234 38.429 35.8281C38.2883 36.1094 38.218 36.332 38.218 36.4961V37.2344C38.218 37.5391 38.2883 37.7734 38.429 37.9375C38.593 38.1016 38.8977 38.1719 39.343 38.1484H54.6712C55.3274 38.1484 55.8782 38.3828 56.3235 38.8516C56.7923 39.2969 57.0266 39.8477 57.0266 40.5039C57.0266 41.1602 56.7923 41.7227 56.3235 42.1914C55.8782 42.6367 55.3274 42.8594 54.6712 42.8594H37.4446C36.1321 42.8594 35.1243 42.543 34.4212 41.9102C33.7415 41.2539 33.3899 40.3281 33.3665 39.1328V36.4961C33.3665 35.5352 33.5891 34.5977 34.0344 33.6836C34.5032 32.7461 35.2649 31.9258 36.3196 31.2227C37.3977 30.4961 38.7571 30.1094 40.3977 30.0625H50.3821C50.8274 30.0391 51.1907 29.9453 51.4719 29.7812C51.7766 29.5938 51.9993 29.3945 52.1399 29.1836C52.2805 28.9492 52.3508 28.7148 52.3508 28.4805C52.3508 28.2461 52.2805 28.0234 52.1399 27.8125C51.9993 27.5781 51.7766 27.3789 51.4719 27.2148C51.1907 27.0273 50.8274 26.9219 50.3821 26.8984H35.968C35.3118 26.8984 34.761 26.6641 34.3157 26.1953C33.8469 25.75 33.6126 25.1992 33.6126 24.543Z" fill="#011755"/>
</svg>
