<svg width="72" height="72" viewBox="0 0 72 72" fill="none" xmlns="http://www.w3.org/2000/svg">
<path d="M55.449 50.301C51.3485 51.2857 47.0678 51.238 42.9903 50.1622C38.9127 49.0865 35.1656 47.0163 32.0845 44.137C29.0034 41.2577 26.6844 37.6592 25.3353 33.6638C23.9862 29.6684 23.649 25.4008 24.354 21.243C24.2484 21.3483 24.135 21.4456 24.015 21.534C23.175 22.173 22.125 22.41 20.025 22.884L18.12 23.316C10.74 24.987 7.04997 25.821 6.17097 28.644C5.29497 31.464 7.80897 34.407 12.84 40.29L14.142 41.811C15.57 43.482 16.287 44.319 16.608 45.351C16.929 46.386 16.821 47.502 16.605 49.731L16.407 51.762C15.648 59.613 15.267 63.537 17.565 65.28C19.863 67.023 23.319 65.436 30.225 62.253L32.016 61.431C33.978 60.525 34.959 60.075 36 60.075C37.041 60.075 38.022 60.525 39.987 61.431L41.772 62.253C48.681 65.433 52.137 67.023 54.432 65.283C56.733 63.537 56.352 59.613 55.593 51.762L55.449 50.301Z" fill="#638AFF"/>
<path opacity="0.5" d="M27.459 16.224L26.475 17.988C25.395 19.926 24.855 20.895 24.015 21.534C24.135 21.444 24.248 21.347 24.354 21.243C23.6488 25.401 23.986 29.669 25.3352 33.6648C26.6845 37.6605 29.0038 41.2592 32.0853 44.1385C35.1668 47.0179 38.9143 49.088 42.9923 50.1635C47.0702 51.239 51.3513 51.2862 55.452 50.301L55.392 49.731C55.179 47.502 55.071 46.386 55.392 45.351C55.713 44.319 56.427 43.482 57.858 41.811L59.16 40.29C64.191 34.41 66.705 31.467 65.826 28.644C64.95 25.821 61.2599 24.984 53.88 23.316L51.972 22.884C49.875 22.41 48.825 22.173 47.982 21.534C47.142 20.895 46.602 19.926 45.522 17.988L44.541 16.224C40.74 9.408 38.841 6 36 6C33.159 6 31.26 9.408 27.459 16.224Z" fill="#638AFF"/>
</svg>
