<svg width="64" height="64" viewBox="0 0 64 64" fill="none" xmlns="http://www.w3.org/2000/svg">
<path opacity="0.5" d="M9.23725 54.7627C13.1466 58.6667 19.4293 58.6667 31.9999 58.6667C44.5706 58.6667 50.8559 58.6667 54.7599 54.76C58.6666 50.8587 58.6666 44.5707 58.6666 32C58.6666 19.4293 58.6666 13.144 54.7599 9.23734C50.8586 5.33334 44.5706 5.33334 31.9999 5.33334C19.4293 5.33334 13.1439 5.33334 9.23725 9.23734C5.33325 13.1467 5.33325 19.4293 5.33325 32C5.33325 44.5707 5.33325 50.8587 9.23725 54.7627Z" fill="#638AFF"/>
<path d="M25.1919 41.0613C24.9816 40.8977 24.7408 40.7777 24.4835 40.7085C24.2262 40.6392 23.9577 40.6221 23.6937 40.658C23.4297 40.694 23.1755 40.7824 22.9461 40.9179C22.7167 41.0535 22.5167 41.2335 22.3579 41.4474C22.1991 41.6614 22.0846 41.9049 22.0211 42.1636C21.9577 42.4224 21.9466 42.6913 21.9886 42.9544C22.0305 43.2175 22.1246 43.4696 22.2653 43.6959C22.406 43.9222 22.5905 44.118 22.8079 44.272C25.4623 46.2556 28.6862 47.3293 31.9999 47.3333C35.3136 47.3293 38.5375 46.2556 41.1919 44.272C41.4094 44.118 41.5939 43.9222 41.7346 43.6959C41.8753 43.4696 41.9694 43.2175 42.0113 42.9544C42.0532 42.6913 42.0421 42.4224 41.9787 42.1636C41.9153 41.9049 41.8008 41.6614 41.6419 41.4474C41.4831 41.2335 41.2831 41.0535 41.0537 40.9179C40.8243 40.7824 40.5702 40.694 40.3062 40.658C40.0422 40.6221 39.7736 40.6392 39.5163 40.7085C39.2591 40.7777 39.0182 40.8977 38.8079 41.0613C36.8428 42.5328 34.4548 43.3297 31.9999 43.3333C29.545 43.3297 27.157 42.5328 25.1919 41.0613ZM42.6666 28C42.6666 30.208 41.4719 32 39.9999 32C38.5279 32 37.3333 30.208 37.3333 28C37.3333 25.792 38.5279 24 39.9999 24C41.4719 24 42.6666 25.792 42.6666 28ZM26.6666 28C26.6666 30.208 25.4719 32 23.9999 32C22.5279 32 21.3333 30.208 21.3333 28C21.3333 25.792 22.5279 24 23.9999 24C25.4719 24 26.6666 25.792 26.6666 28Z" fill="#638AFF"/>
</svg>
