<svg width="64" height="64" viewBox="0 0 64 64" fill="none" xmlns="http://www.w3.org/2000/svg">
<path d="M49.2881 44.712C45.6432 45.5872 41.8381 45.5448 38.2136 44.5886C34.5892 43.6324 31.2584 41.7922 28.5196 39.2328C25.7809 36.6735 23.7196 33.4748 22.5204 29.9234C21.3211 26.3719 21.0214 22.5784 21.6481 18.8827C21.5542 18.9763 21.4535 19.0627 21.3467 19.1413C20.6001 19.7093 19.6667 19.92 17.8001 20.3413L16.1067 20.7253C9.54672 22.2107 6.26672 22.952 5.48539 25.4613C4.70672 27.968 6.94139 30.584 11.4134 35.8133L12.5707 37.1653C13.8401 38.6507 14.4774 39.3947 14.7627 40.312C15.0481 41.232 14.9521 42.224 14.7601 44.2053L14.5841 46.0107C13.9094 52.9893 13.5707 56.4773 15.6134 58.0267C17.6561 59.576 20.7281 58.1653 26.8667 55.336L28.4587 54.6053C30.2027 53.8 31.0747 53.4 32.0001 53.4C32.9254 53.4 33.7974 53.8 35.5441 54.6053L37.1307 55.336C43.2721 58.1627 46.3441 59.576 48.3841 58.0293C50.4294 56.4773 50.0907 52.9893 49.4161 46.0107L49.2881 44.712Z" fill="#245BFD"/>
<path opacity="0.5" d="M24.4081 14.4213L23.5334 15.9893C22.5734 17.712 22.0934 18.5733 21.3467 19.1413C21.4534 19.0613 21.5538 18.9751 21.6481 18.8827C21.0213 22.5787 21.321 26.3725 22.5203 29.9242C23.7197 33.476 25.7812 36.6748 28.5203 39.2343C31.2594 41.7937 34.5906 43.6338 38.2154 44.5898C41.8403 45.5458 45.6457 45.5878 49.2907 44.712L49.2374 44.2053C49.0481 42.224 48.9521 41.232 49.2374 40.312C49.5227 39.3947 50.1574 38.6507 51.4294 37.1653L52.5867 35.8133C57.0587 30.5867 59.2934 27.9707 58.5121 25.4613C57.7334 22.952 54.4534 22.208 47.8934 20.7253L46.1974 20.3413C44.3334 19.92 43.4001 19.7093 42.6507 19.1413C41.9041 18.5733 41.4241 17.712 40.4641 15.9893L39.5921 14.4213C36.2134 8.36268 34.5254 5.33334 32.0001 5.33334C29.4747 5.33334 27.7867 8.36268 24.4081 14.4213Z" fill="#8AA8FF"/>
</svg>
