<svg width="64" height="64" viewBox="0 0 64 64" fill="none" xmlns="http://www.w3.org/2000/svg">
<path fill-rule="evenodd" clip-rule="evenodd" d="M38.5253 43.672L54.1173 28.1253C56.3627 25.888 57.4853 24.768 58.0747 23.3467C58.664 21.9253 58.6667 20.3387 58.6667 17.1733V15.6613C58.6667 10.792 58.6667 8.35734 57.1493 6.84534C55.632 5.33334 53.192 5.33334 48.3093 5.33334H46.7893C43.616 5.33334 42.0293 5.33334 40.6027 5.92268C39.1733 6.51201 38.0507 7.63201 35.8027 9.86934L20.2133 25.416C17.5893 28.0293 15.9627 29.6533 15.3333 31.2187C15.1384 31.6944 15.037 32.2032 15.0347 32.7173C15.0347 34.856 16.76 36.5787 20.2133 40.0213L20.6773 40.4827L26.112 34.9653C26.2964 34.7782 26.5158 34.6291 26.7578 34.5268C26.9998 34.4244 27.2595 34.3707 27.5222 34.3687C27.785 34.3667 28.0455 34.4165 28.289 34.5152C28.5325 34.6139 28.7542 34.7596 28.9413 34.944C29.1285 35.1284 29.2775 35.3478 29.3799 35.5898C29.4823 35.8318 29.536 36.0915 29.538 36.3543C29.54 36.617 29.4902 36.8775 29.3915 37.121C29.2927 37.3645 29.147 37.5862 28.9627 37.7733L23.5093 43.3067L23.8747 43.672C27.328 47.112 29.056 48.8347 31.2 48.8347C31.6747 48.8347 32.128 48.752 32.584 48.584C34.192 47.992 35.8347 46.3547 38.5253 43.672ZM45.8507 25.416C44.878 26.3851 43.561 26.9292 42.188 26.9292C40.815 26.9292 39.498 26.3851 38.5253 25.416C38.044 24.9377 37.662 24.3689 37.4013 23.7424C37.1406 23.1158 37.0065 22.4439 37.0065 21.7653C37.0065 21.0867 37.1406 20.4149 37.4013 19.7883C37.662 19.1618 38.044 18.593 38.5253 18.1147C39.498 17.1456 40.815 16.6015 42.188 16.6015C43.561 16.6015 44.878 17.1456 45.8507 18.1147C46.332 18.593 46.714 19.1618 46.9747 19.7883C47.2354 20.4149 47.3696 21.0867 47.3696 21.7653C47.3696 22.4439 47.2354 23.1158 46.9747 23.7424C46.714 24.3689 46.332 24.9377 45.8507 25.416Z" fill="#638AFF"/>
<path opacity="0.5" d="M24.0906 15.9013L17.3093 22.6667C16.064 23.9093 14.92 25.048 14.016 26.08C13.4042 26.7604 12.852 27.4919 12.3653 28.2667L12.3013 28.2L12.048 27.9493C10.8666 26.808 9.48058 25.8997 7.96262 25.272L7.63462 25.1387L6.62396 24.7387C6.30921 24.6146 6.03032 24.4141 5.81247 24.1552C5.59461 23.8964 5.44464 23.5874 5.3761 23.256C5.30757 22.9247 5.32262 22.5816 5.41989 22.2575C5.51717 21.9335 5.69361 21.6388 5.93329 21.4C8.91996 18.4187 12.5066 14.8427 14.24 14.1253C15.7454 13.4965 17.3926 13.2855 19.008 13.5147C20.464 13.7307 21.84 14.48 24.0906 15.9013ZM35.672 51.5013C36.2186 52.056 36.5786 52.448 36.9093 52.8667C37.3413 53.4196 37.7271 54.0045 38.0666 54.6213C38.4453 55.3147 38.7413 56.0533 39.3306 57.5333C39.4463 57.8132 39.6292 58.0603 39.8633 58.2525C40.0973 58.4447 40.3751 58.5762 40.6722 58.6353C40.9692 58.6944 41.2762 58.6792 41.566 58.5912C41.8558 58.5032 42.1193 58.345 42.3333 58.1307L42.5573 57.9093C45.544 54.9307 49.1306 51.3547 49.8506 49.6293C50.4831 48.1305 50.6942 46.4874 50.4613 44.8773C50.2453 43.424 49.496 42.0507 48.0693 39.8053L41.264 46.5893C39.9893 47.8613 38.8213 49.0267 37.7626 49.9387C37.1306 50.488 36.4373 51.032 35.672 51.5013Z" fill="#638AFF"/>
</svg>
