<svg width="73" height="72" viewBox="0 0 73 72" fill="none" xmlns="http://www.w3.org/2000/svg">
<path d="M46.0893 32.067C43.1283 28.527 41.6493 26.757 39.9453 27.027C38.2443 27.3 37.4493 29.436 35.8593 33.708L35.4453 34.812C34.9953 36.027 34.7673 36.633 34.3263 37.08C33.8883 37.527 33.2823 37.764 32.0763 38.238L30.9753 38.667C26.7243 40.332 24.5973 41.166 24.3543 42.867C24.1113 44.568 25.9143 46.014 29.5173 48.9L30.4473 49.65C31.4733 50.469 31.9863 50.88 32.2803 51.441C32.5803 52.002 32.6253 52.653 32.7183 53.952L32.8053 55.134C33.1353 59.703 33.3033 61.989 34.8543 62.769C36.4053 63.549 38.3163 62.304 42.1353 59.82L43.1223 59.175C44.2083 58.47 44.7513 58.116 45.3723 58.014C45.9963 57.915 46.6323 58.08 47.8953 58.41L49.0503 58.71C53.5053 59.868 55.7343 60.45 56.9373 59.229C58.1403 58.008 57.5163 55.797 56.2743 51.369L55.9503 50.229C55.5993 48.969 55.4223 48.339 55.5093 47.718C55.5993 47.094 55.9443 46.548 56.6313 45.45L57.2613 44.454C59.6823 40.599 60.8913 38.673 60.0813 37.14C59.2743 35.607 56.9823 35.481 52.3953 35.235L51.2073 35.169C49.9053 35.1 49.2513 35.064 48.6843 34.779C48.1143 34.494 47.6943 33.99 46.8543 32.982L46.0893 32.067Z" fill="#638AFF"/>
<path opacity="0.5" d="M31.3263 12.756C35.2743 8.03402 37.2483 5.67302 39.5163 6.03602C41.7843 6.39902 42.8463 9.24602 44.9673 14.943L45.5163 16.416C46.1193 18.036 46.4223 18.846 47.0073 19.44C47.5953 20.037 48.3993 20.352 50.0103 20.982L51.4773 21.558C57.1473 23.778 59.9823 24.888 60.3033 27.156C60.6273 29.427 58.2243 31.35 53.4213 35.202L52.1793 36.198C50.8143 37.293 50.1303 37.839 49.7343 38.589C49.3383 39.339 49.2783 40.203 49.1523 41.934L49.0383 43.512C48.5943 49.605 48.3723 52.653 46.3053 53.691C44.2353 54.732 41.6913 53.073 36.5973 49.758L35.2803 48.9C33.8343 47.958 33.1113 47.49 32.2803 47.355C31.4493 47.22 30.6063 47.439 28.9173 47.88L27.3783 48.279C21.4383 49.827 18.4653 50.598 16.8633 48.972C15.2613 47.346 16.0893 44.394 17.7483 38.496L18.1743 36.969C18.6453 35.292 18.8823 34.455 18.7653 33.624C18.6453 32.793 18.1863 32.064 17.2683 30.6L16.4343 29.271C13.2033 24.132 11.5893 21.561 12.6633 19.521C13.7433 17.475 16.8003 17.31 22.9173 16.977L24.4983 16.893C26.2383 16.8 27.1053 16.752 27.8643 16.371C28.6203 15.99 29.1813 15.321 30.3033 13.977L31.3263 12.756Z" fill="#638AFF"/>
</svg>
