<svg width="65" height="64" viewBox="0 0 65 64" fill="none" xmlns="http://www.w3.org/2000/svg">
<path opacity="0.5" d="M11.1667 25.7973C11.1667 14.496 20.1214 5.33331 31.1667 5.33331C42.2121 5.33331 51.1667 14.496 51.1667 25.7973C51.1758 28.6631 50.5879 31.4994 49.4406 34.1255C48.2932 36.7517 46.6116 39.1101 44.5027 41.0506C43.1427 42.296 42.1321 43.2213 41.4174 43.8933C41.0554 44.2333 40.6998 44.5801 40.3507 44.9333L40.284 45.0053L40.2627 45.032C39.6307 45.8266 39.4947 46.032 39.4147 46.2186C39.3347 46.4053 39.2734 46.6453 39.1134 47.6586C39.052 48.0586 39.0441 48.7413 39.0441 50.6053V50.6853C39.0441 51.776 39.0441 52.7173 38.9774 53.488C38.9054 54.304 38.7454 55.1146 38.3161 55.8746C37.8407 56.7203 37.1509 57.4258 36.3161 57.92C35.5747 58.36 34.7827 58.5226 33.9854 58.5973C33.2307 58.6666 32.3107 58.6666 31.2441 58.6666H31.0894C30.0227 58.6666 29.1027 58.6666 28.3481 58.5973C27.5481 58.5226 26.7587 58.3573 26.0147 57.92C25.1809 57.4254 24.492 56.72 24.0174 55.8746C23.5907 55.1146 23.4307 54.3066 23.3561 53.488C23.2867 52.7146 23.2867 51.776 23.2867 50.6853V50.6053C23.2867 48.7413 23.2814 48.0586 23.2174 47.6586C23.0574 46.6453 23.0014 46.4053 22.9187 46.2186C22.8387 46.032 22.7027 45.8266 22.0707 45.0293L22.0494 45.0026L21.9827 44.9333L21.7481 44.6933C21.4746 44.4227 21.1972 44.156 20.9161 43.8933C20.2014 43.2213 19.1907 42.296 17.8307 41.048C15.7222 39.1078 14.0407 36.7498 12.8934 34.1241C11.7461 31.4985 11.1581 28.6627 11.1667 25.7973Z" fill="#638AFF"/>
<path d="M35.3933 52.4667H26.94C26.9471 52.7227 26.9596 52.952 26.9773 53.1547C27.0253 53.7147 27.1107 53.9147 27.1667 54.016C27.326 54.2975 27.5557 54.5327 27.8333 54.6987C27.932 54.7547 28.1293 54.8427 28.676 54.8907C29.2467 54.944 29.9987 54.9467 31.1667 54.9467C32.332 54.9467 33.0867 54.9467 33.6573 54.8933C34.2013 54.84 34.4013 54.7547 34.5 54.6987C34.7776 54.5327 35.0073 54.2975 35.1667 54.016C35.22 53.9147 35.3053 53.712 35.3533 53.1547C35.3711 52.9538 35.3844 52.7244 35.3933 52.4667ZM34.1267 21.8053C34.9453 22.4027 35.1347 23.5653 34.5507 24.4L31.4093 28.9013H35.148C35.4843 28.9029 35.8136 28.9981 36.099 29.1761C36.3844 29.3541 36.6146 29.608 36.764 29.9093C36.9176 30.2139 36.9861 30.5544 36.9621 30.8947C36.9382 31.235 36.8228 31.5626 36.628 31.8427L31.4333 39.28C31.2983 39.4786 31.1246 39.648 30.9226 39.7779C30.7206 39.9079 30.4945 39.9958 30.2577 40.0363C30.021 40.0769 29.7785 40.0693 29.5448 40.0141C29.311 39.9588 29.0908 39.857 28.8973 39.7147C28.5044 39.4213 28.2406 38.9869 28.1616 38.5029C28.0825 38.019 28.1942 37.5232 28.4733 37.12L31.6147 32.6187H27.876C27.5394 32.6168 27.2099 32.5213 26.9245 32.3428C26.6391 32.1643 26.409 31.9099 26.26 31.608C26.1069 31.3037 26.0387 30.9638 26.0627 30.624C26.0866 30.2842 26.2018 29.9572 26.396 29.6773L31.5907 22.2373C31.7257 22.0387 31.8994 21.8694 32.1014 21.7394C32.3034 21.6095 32.5296 21.5216 32.7663 21.481C33.003 21.4404 33.2455 21.448 33.4792 21.5033C33.713 21.5585 33.9332 21.6604 34.1267 21.8027" fill="#638AFF"/>
</svg>
