<svg width="24" height="24" viewBox="0 0 24 24" fill="none" xmlns="http://www.w3.org/2000/svg">
<path fill-rule="evenodd" clip-rule="evenodd" d="M11.512 8.42999C11.6479 8.31353 11.821 8.24951 12 8.24951C12.179 8.24951 12.352 8.31353 12.488 8.42999L19.488 14.43C19.5628 14.4941 19.6243 14.5723 19.6689 14.6601C19.7136 14.748 19.7405 14.8438 19.7481 14.942C19.7557 15.0403 19.7439 15.139 19.7133 15.2327C19.6828 15.3264 19.634 15.4131 19.57 15.488C19.5059 15.5628 19.4277 15.6243 19.3398 15.669C19.252 15.7136 19.1562 15.7405 19.0579 15.7481C18.9597 15.7557 18.8609 15.7439 18.7672 15.7134C18.6736 15.6828 18.5868 15.6341 18.512 15.57L12 9.98699L5.48796 15.568C5.41381 15.6359 5.32676 15.6882 5.23199 15.7218C5.13723 15.7554 5.03667 15.7696 4.93631 15.7635C4.83595 15.7575 4.73783 15.7313 4.64778 15.6866C4.55773 15.6418 4.4776 15.5794 4.41214 15.5031C4.34669 15.4268 4.29725 15.3381 4.26676 15.2423C4.23627 15.1465 4.22536 15.0455 4.23467 14.9454C4.24398 14.8453 4.27333 14.7481 4.32096 14.6595C4.3686 14.571 4.43355 14.4929 4.51196 14.43L11.512 8.42999Z" fill="black"/>
</svg>
