<svg width="64" height="64" viewBox="0 0 64 64" fill="none" xmlns="http://www.w3.org/2000/svg">
<path d="M26.9732 38.2747C26.2278 37.5315 25.6364 36.6485 25.2328 35.6763C24.8293 34.7042 24.6216 33.6619 24.6216 32.6093C24.6216 31.5567 24.8293 30.5145 25.2328 29.5423C25.6364 28.5702 26.2278 27.6872 26.9732 26.944C28.4782 25.441 30.5182 24.5968 32.6452 24.5968C34.7722 24.5968 36.8122 25.441 38.3172 26.944C39.5092 28.1333 40.3439 30.6053 40.9172 33.2107C41.7732 37.104 42.2026 39.0507 40.6506 40.6027C39.0986 42.1547 37.1466 41.7227 33.2479 40.8693C30.6399 40.2933 28.1652 39.4667 26.9732 38.2747Z" fill="#638AFF"/>
<path opacity="0.5" d="M58.6667 32C58.6667 46.728 46.728 58.6667 32 58.6667C17.272 58.6667 5.33337 46.728 5.33337 32C5.33337 17.272 17.272 5.33333 32 5.33333C46.728 5.33333 58.6667 17.272 58.6667 32Z" fill="#638AFF"/>
<path d="M11.7867 14.6027C12.6578 13.5964 13.5973 12.6587 14.6053 11.7893L14.7467 11.9173L18.7467 15.9173C19.1112 16.2944 19.313 16.7995 19.3087 17.3239C19.3044 17.8483 19.0943 18.35 18.7236 18.721C18.353 19.092 17.8515 19.3026 17.3271 19.3074C16.8027 19.3122 16.2974 19.1108 15.92 18.7467L11.92 14.7467L11.7867 14.6027ZM5.40799 34C5.30785 32.6686 5.30785 31.3315 5.40799 30H10.6667C11.1971 30 11.7058 30.2107 12.0809 30.5858C12.4559 30.9609 12.6667 31.4696 12.6667 32C12.6667 32.5304 12.4559 33.0391 12.0809 33.4142C11.7058 33.7893 11.1971 34 10.6667 34H5.40799ZM14.6027 52.2133C13.596 51.3461 12.6556 50.4048 11.7893 49.3973L11.92 49.2507L15.92 45.2507C16.2974 44.8865 16.8027 44.6852 17.3271 44.69C17.8515 44.6948 18.353 44.9054 18.7236 45.2763C19.0943 45.6473 19.3044 46.1491 19.3087 46.6735C19.313 47.1979 19.1112 47.703 18.7467 48.08L14.7467 52.08L14.6027 52.2133ZM52.2133 49.3973C51.3422 50.4036 50.4035 51.3413 49.3973 52.2107L49.2533 52.08L45.2533 48.08C45.0568 47.8969 44.8992 47.6761 44.7899 47.4308C44.6806 47.1854 44.6218 46.9206 44.6171 46.6521C44.6123 46.3835 44.6617 46.1168 44.7623 45.8677C44.8629 45.6187 45.0126 45.3925 45.2026 45.2026C45.3925 45.0127 45.6187 44.8629 45.8677 44.7623C46.1168 44.6618 46.3835 44.6124 46.6521 44.6171C46.9206 44.6218 47.1854 44.6806 47.4308 44.7899C47.6761 44.8992 47.8969 45.0568 48.08 45.2533L52.08 49.2533L52.2133 49.3973ZM58.592 30C58.6921 31.3315 58.6921 32.6686 58.592 34H53.3333C52.8029 34 52.2942 33.7893 51.9191 33.4142C51.544 33.0391 51.3333 32.5304 51.3333 32C51.3333 31.4696 51.544 30.9609 51.9191 30.5858C52.2942 30.2107 52.8029 30 53.3333 30H58.592ZM49.3973 11.7867C50.4035 12.6578 51.3413 13.5964 52.2107 14.6027L52.08 14.7467L48.08 18.7467C47.8969 18.9432 47.6761 19.1008 47.4308 19.2101C47.1854 19.3194 46.9206 19.3782 46.6521 19.3829C46.3835 19.3877 46.1168 19.3383 45.8677 19.2377C45.6187 19.1371 45.3925 18.9874 45.2026 18.7974C45.0126 18.6075 44.8629 18.3813 44.7623 18.1323C44.6617 17.8832 44.6123 17.6165 44.6171 17.3479C44.6218 17.0794 44.6806 16.8146 44.7899 16.5692C44.8992 16.3239 45.0568 16.1031 45.2533 15.92L49.2533 11.92L49.3973 11.7867ZM34 5.40801V10.6667C34 11.1971 33.7893 11.7058 33.4142 12.0809C33.0391 12.456 32.5304 12.6667 32 12.6667C31.4696 12.6667 30.9609 12.456 30.5858 12.0809C30.2107 11.7058 30 11.1971 30 10.6667V5.40801C31.3314 5.30787 32.6685 5.30787 34 5.40801Z" fill="#638AFF"/>
</svg>
