<svg width="72" height="72" viewBox="0 0 72 72" fill="none" xmlns="http://www.w3.org/2000/svg">
<path d="M30.831 49.545C30.846 49.215 31.389 49.083 31.551 49.371C32.313 50.721 33.609 52.704 35.079 53.607C36.549 54.51 38.907 54.765 40.455 54.831C40.785 54.846 40.914 55.389 40.626 55.551C39.276 56.313 37.296 57.609 36.393 59.079C35.49 60.549 35.235 62.907 35.169 64.455C35.154 64.785 34.608 64.914 34.449 64.626C33.687 63.276 32.391 61.296 30.918 60.393C29.448 59.49 27.09 59.235 25.545 59.169C25.215 59.154 25.083 58.608 25.371 58.449C26.721 57.687 28.704 56.391 29.607 54.918C30.507 53.448 30.765 51.09 30.831 49.545Z" fill="#638AFF"/>
<path opacity="0.5" d="M55.4761 46.545C55.4491 46.215 54.8761 46.077 54.7021 46.359C54.1861 47.208 53.4421 48.228 52.6111 48.738C51.7801 49.248 50.5351 49.446 49.5451 49.524C49.2151 49.548 49.0771 50.124 49.3591 50.295C50.2051 50.811 51.2281 51.555 51.7381 52.386C52.2481 53.217 52.4461 54.465 52.5241 55.455C52.5481 55.785 53.1241 55.92 53.2951 55.638C53.8111 54.792 54.5551 53.769 55.3861 53.262C56.2171 52.755 57.4651 52.551 58.4551 52.476C58.7851 52.449 58.9201 51.876 58.6381 51.702C57.7921 51.186 56.7691 50.442 56.2621 49.611C55.7551 48.78 55.5511 47.535 55.4761 46.545Z" fill="#638AFF"/>
<path d="M44.1089 12.0061L43.3829 11.0881C40.5719 7.53905 39.1679 5.76305 37.5329 6.02405C35.9009 6.28805 35.1179 8.41205 33.5549 12.6631L33.1499 13.7611C32.7059 14.9701 32.4839 15.5731 32.0579 16.0171C31.6319 16.4611 31.0499 16.6921 29.8859 17.1571L28.8269 17.5801L28.0859 17.8801C24.4859 19.3201 22.6739 20.1391 22.4399 21.7291C22.1939 23.4241 23.9099 24.8761 27.3419 27.7771L28.2299 28.5271C29.2079 29.3521 29.6939 29.7661 29.9729 30.3271C30.2549 30.8881 30.2939 31.5361 30.3719 32.8321L30.4439 34.0111C30.7259 38.5711 30.8639 40.8511 32.3489 41.6371C33.8309 42.423 35.6729 41.1961 39.3569 38.7391L40.3109 38.1031C41.3579 37.4041 41.8799 37.0531 42.4799 36.9601C43.0799 36.8671 43.6829 37.0321 44.8979 37.3681L45.9989 37.674C50.2679 38.856 52.4009 39.4471 53.5619 38.2381C54.7259 37.0291 54.1469 34.8181 52.9919 30.3991L52.6919 29.2561C52.3649 27.9991 52.1999 27.3721 52.2899 26.7511C52.3799 26.1301 52.7159 25.5841 53.3879 24.4951L53.9969 23.5051C56.3519 19.6771 57.5309 17.7631 56.7689 16.2271C56.0039 14.6971 53.8049 14.5561 49.4069 14.2831L48.2669 14.2111C47.0189 14.1331 46.3949 14.0941 45.8519 13.8061C45.3089 13.5181 44.9099 13.0141 44.1119 12.0061" fill="#638AFF"/>
<path opacity="0.5" d="M26.5049 39.978C20.0939 43.11 14.7569 48.072 12.7439 54C10.4879 39.879 13.6199 30.759 18.6389 25.089C19.0709 25.974 19.6349 26.706 20.1389 27.279C21.1889 28.467 22.6949 29.739 24.2249 31.032L25.3259 31.962L25.8359 32.397C25.8509 32.589 25.8659 32.817 25.8809 33.108L25.9709 34.563C26.0909 36.528 26.2109 38.445 26.5049 39.978Z" fill="#638AFF"/>
</svg>
