<svg width="64" height="64" viewBox="0 0 64 64" fill="none" xmlns="http://www.w3.org/2000/svg">
<path d="M15.3333 18.6667C14.8028 18.6667 14.2941 18.8774 13.919 19.2525C13.544 19.6275 13.3333 20.1362 13.3333 20.6667C13.3333 21.1971 13.544 21.7058 13.919 22.0809C14.2941 22.456 14.8028 22.6667 15.3333 22.6667H25.9999C26.5304 22.6667 27.0391 22.456 27.4141 22.0809C27.7892 21.7058 27.9999 21.1971 27.9999 20.6667C27.9999 20.1362 27.7892 19.6275 27.4141 19.2525C27.0391 18.8774 26.5304 18.6667 25.9999 18.6667H15.3333Z" fill="#638AFF"/>
<path fill-rule="evenodd" clip-rule="evenodd" d="M56.5013 21.344C56.3341 21.3351 56.1564 21.3316 55.9679 21.3333H48.5733C42.5173 21.3333 37.3333 25.9627 37.3333 32C37.3333 38.0373 42.5173 42.6667 48.5733 42.6667H55.9679C56.1564 42.6684 56.3341 42.6649 56.5013 42.656C58.9626 42.5067 61.1386 40.6373 61.3226 38.024C61.3333 37.8533 61.3333 37.6693 61.3333 37.4987V26.5013C61.3333 26.3307 61.3333 26.1467 61.3226 25.976C61.1386 23.3627 58.9626 21.496 56.5013 21.344ZM47.9226 34.8453C49.4799 34.8453 50.7439 33.5707 50.7439 32C50.7439 30.4267 49.4799 29.1547 47.9226 29.1547C46.3653 29.1547 45.0959 30.4293 45.0959 32C45.0959 33.5733 46.3626 34.8453 47.9226 34.8453Z" fill="#638AFF"/>
<path opacity="0.5" d="M56.3734 21.3387C56.3734 18.1893 56.256 14.8107 54.2454 12.392C54.0482 12.1556 53.8409 11.9278 53.624 11.7093C51.6267 9.71467 49.096 8.82933 45.9707 8.408C42.9307 8 39.0507 8 34.1494 8H28.5174C23.616 8 19.7334 8 16.6934 8.408C13.568 8.82933 11.0374 9.71467 9.04004 11.7093C7.04537 13.7067 6.16004 16.2373 5.73871 19.3627C5.33337 22.4027 5.33337 26.2827 5.33337 31.184V31.4827C5.33337 36.384 5.33337 40.2667 5.74137 43.304C6.16271 46.4293 7.04804 48.96 9.04271 50.9573C11.04 52.952 13.5707 53.8373 16.696 54.2587C19.736 54.6667 23.616 54.6667 28.5174 54.6667H34.1494C39.0507 54.6667 42.9334 54.6667 45.9707 54.2587C49.096 53.8373 51.6267 52.952 53.624 50.9573C54.1663 50.4098 54.6338 49.8231 55.0267 49.1973C56.2267 47.2773 56.3707 44.9253 56.3707 42.664L55.9707 42.6667H48.5734C42.5174 42.6667 37.3334 38.0373 37.3334 32C37.3334 25.9627 42.5174 21.3333 48.5734 21.3333H55.968C56.1085 21.3333 56.2454 21.3351 56.3734 21.3387Z" fill="#638AFF"/>
</svg>
