<svg width="64" height="64" viewBox="0 0 64 64" fill="none" xmlns="http://www.w3.org/2000/svg">
<path d="M27.4054 44.04C27.4187 43.7467 27.9014 43.6293 28.0454 43.8853C28.7227 45.0853 29.8747 46.848 31.1814 47.6507C32.4881 48.4533 34.5841 48.68 35.9601 48.7387C36.2534 48.752 36.3681 49.2347 36.1121 49.3787C34.9121 50.056 33.1521 51.208 32.3494 52.5147C31.5467 53.8213 31.3201 55.9173 31.2614 57.2933C31.2481 57.5867 30.7627 57.7013 30.6214 57.4453C29.9441 56.2453 28.7921 54.4853 27.4827 53.6827C26.1761 52.88 24.0801 52.6533 22.7067 52.5947C22.4134 52.5813 22.2961 52.096 22.5521 51.9547C23.7521 51.2773 25.5147 50.1253 26.3174 48.816C27.1174 47.5093 27.3467 45.4133 27.4054 44.04Z" fill="#245BFD"/>
<path opacity="0.5" d="M49.312 41.3733C49.288 41.08 48.7787 40.9573 48.624 41.208C48.1654 41.9627 47.504 42.8693 46.7654 43.3227C46.0267 43.776 44.92 43.952 44.04 44.0213C43.7467 44.0427 43.624 44.5547 43.8747 44.7067C44.6267 45.1653 45.536 45.8267 45.9894 46.5653C46.4427 47.304 46.6187 48.4133 46.688 49.2933C46.7094 49.5867 47.2214 49.7067 47.3734 49.456C47.832 48.704 48.4934 47.7947 49.232 47.344C49.9707 46.8933 51.08 46.712 51.96 46.6453C52.2534 46.6213 52.3734 46.112 52.1227 45.9573C51.3707 45.4987 50.4614 44.8373 50.0107 44.0987C49.56 43.36 49.3787 42.2533 49.312 41.3733Z" fill="#0E4BFF"/>
<path d="M39.208 10.672L38.5626 9.856C36.064 6.70133 34.816 5.12266 33.3626 5.35466C31.912 5.58933 31.216 7.47733 29.8266 11.256L29.4666 12.232C29.072 13.3067 28.8746 13.8427 28.496 14.2373C28.1173 14.632 27.6 14.8373 26.5653 15.2507L25.624 15.6267L24.9653 15.8933C21.7653 17.1733 20.1546 17.9013 19.9466 19.3147C19.728 20.8213 21.2533 22.112 24.304 24.6907L25.0933 25.3573C25.9626 26.0907 26.3946 26.4587 26.6426 26.9573C26.8933 27.456 26.928 28.032 26.9973 29.184L27.0613 30.232C27.312 34.2853 27.4346 36.312 28.7546 37.0107C30.072 37.7093 31.7093 36.6187 34.984 34.4347L35.832 33.8693C36.7626 33.248 37.2266 32.936 37.76 32.8533C38.2933 32.7707 38.8293 32.9173 39.9093 33.216L40.888 33.488C44.6826 34.5387 46.5786 35.064 47.6106 33.9893C48.6453 32.9147 48.1306 30.9493 47.104 27.0213L46.8373 26.0053C46.5466 24.888 46.4 24.3307 46.48 23.7787C46.56 23.2267 46.8586 22.7413 47.456 21.7733L47.9973 20.8933C50.0906 17.4907 51.1386 15.7893 50.4613 14.424C49.7813 13.064 47.8266 12.9387 43.9173 12.696L42.904 12.632C41.7946 12.5627 41.24 12.528 40.7573 12.272C40.2746 12.016 39.92 11.568 39.2106 10.672" fill="#245BFD"/>
<path opacity="0.5" d="M23.5599 35.536C17.8613 38.32 13.1173 42.7307 11.3279 48C9.32261 35.448 12.1066 27.3413 16.5679 22.3013C16.9519 23.088 17.4533 23.7387 17.9013 24.248C18.8346 25.304 20.1733 26.4347 21.5333 27.584L22.5119 28.4107L22.9653 28.7973C22.9786 28.968 22.9919 29.1707 23.0053 29.4293L23.0853 30.7227C23.1919 32.4693 23.2986 34.1733 23.5599 35.536Z" fill="#638AFF"/>
</svg>
