<svg width="65" height="64" viewBox="0 0 65 64" fill="none" xmlns="http://www.w3.org/2000/svg">
<path opacity="0.5" fill-rule="evenodd" clip-rule="evenodd" d="M38.5774 5.73867C37.5908 5.33333 36.3374 5.33333 33.8334 5.33333C31.3294 5.33333 30.0788 5.33333 29.0894 5.73867C28.4385 6.00466 27.8465 6.39675 27.3477 6.89239C26.8489 7.38803 26.453 7.97743 26.1828 8.62667C25.9321 9.22133 25.8361 9.91733 25.7961 10.928C25.7771 11.66 25.5723 12.3752 25.201 13.0063C24.8297 13.6374 24.304 14.1638 23.6734 14.536C23.0301 14.8936 22.3069 15.0831 21.5708 15.0868C20.8348 15.0905 20.1097 14.9084 19.4628 14.5573C18.5614 14.0827 17.9081 13.8213 17.2628 13.736C15.851 13.5518 14.4235 13.9312 13.2894 14.792C12.4414 15.4373 11.8148 16.5147 10.5641 18.6667C9.31078 20.8187 8.68678 21.8933 8.54544 22.9467C8.35878 24.3493 8.74278 25.768 9.61211 26.8907C10.0068 27.4027 10.5641 27.832 11.4254 28.3707C12.6974 29.1627 13.5134 30.512 13.5134 32C13.5134 33.488 12.6974 34.8373 11.4281 35.6267C10.5641 36.168 10.0068 36.5973 9.60944 37.1093C9.18162 37.6646 8.86744 38.2987 8.68487 38.9754C8.5023 39.6522 8.45492 40.3583 8.54544 41.0533C8.68678 42.104 9.31078 43.1813 10.5641 45.3333C11.8174 47.4853 12.4414 48.56 13.2894 49.208C14.4201 50.0693 15.8494 50.448 17.2628 50.264C17.9081 50.1787 18.5614 49.9173 19.4628 49.4427C20.11 49.0911 20.8356 48.9088 21.5722 48.9125C22.3087 48.9162 23.0324 49.1059 23.6761 49.464C24.9721 50.2107 25.7401 51.584 25.7961 53.072C25.8361 54.0853 25.9321 54.7787 26.1828 55.3733C26.7268 56.68 27.7721 57.72 29.0894 58.2613C30.0761 58.6667 31.3294 58.6667 33.8334 58.6667C36.3374 58.6667 37.5908 58.6667 38.5774 58.2613C39.2284 57.9953 39.8203 57.6032 40.3192 57.1076C40.818 56.612 41.2139 56.0226 41.4841 55.3733C41.7348 54.7787 41.8308 54.0853 41.8708 53.072C41.9241 51.584 42.6948 50.208 43.9934 49.464C44.6368 49.1064 45.36 48.9169 46.096 48.9132C46.8321 48.9095 47.5572 49.0916 48.2041 49.4427C49.1054 49.9173 49.7588 50.1787 50.4041 50.264C51.8174 50.4507 53.2468 50.0693 54.3774 49.208C55.2254 48.5627 55.8521 47.4853 57.1028 45.3333C58.3561 43.1813 58.9801 42.1067 59.1214 41.0533C59.2116 40.3581 59.1638 39.6519 58.9808 38.9751C58.7977 38.2984 58.4831 37.6644 58.0548 37.1093C57.6601 36.5973 57.1028 36.168 56.2414 35.6293C54.9694 34.8373 54.1534 33.488 54.1534 32C54.1534 30.512 54.9694 29.1627 56.2388 28.3733C57.1028 27.832 57.6601 27.4027 58.0574 26.8907C58.4853 26.3354 58.7994 25.7013 58.982 25.0246C59.1646 24.3478 59.212 23.6417 59.1214 22.9467C58.9801 21.896 58.3561 20.8187 57.1028 18.6667C55.8494 16.5147 55.2254 15.44 54.3774 14.792C53.2434 13.9312 51.8159 13.5518 50.4041 13.736C49.7588 13.8213 49.1054 14.0827 48.2041 14.5573C47.5568 14.9089 46.8313 15.0912 46.0947 15.0875C45.3581 15.0838 44.6345 14.8941 43.9908 14.536C43.3607 14.1635 42.8356 13.6369 42.4647 13.0058C42.0939 12.3747 41.8895 11.6597 41.8708 10.928C41.8308 9.91467 41.7348 9.22133 41.4841 8.62667C41.2139 7.97743 40.818 7.38803 40.3192 6.89239C39.8203 6.39675 39.2284 6.00466 38.5774 5.73867Z" fill="#638AFF"/>
<path d="M41.8946 32C41.8946 36.4187 38.284 40 33.8333 40C29.3826 40 25.772 36.4187 25.772 32C25.772 27.5813 29.38 24 33.8333 24C38.2866 24 41.8946 27.5813 41.8946 32Z" fill="#638AFF"/>
</svg>
