<svg width="64" height="64" viewBox="0 0 64 64" fill="none" xmlns="http://www.w3.org/2000/svg">
<path opacity="0.5" d="M5.33337 32C5.33337 19.4293 5.33337 13.144 9.23737 9.23731C13.1467 5.33331 19.4294 5.33331 32 5.33331C44.5707 5.33331 50.856 5.33331 54.76 9.23731C58.6667 13.1466 58.6667 19.4293 58.6667 32C58.6667 44.5706 58.6667 50.856 54.76 54.76C50.8587 58.6666 44.5707 58.6666 32 58.6666C19.4294 58.6666 13.144 58.6666 9.23737 54.76C5.33337 50.8586 5.33337 44.5706 5.33337 32Z" fill="#638AFF"/>
<path d="M35.968 17.1894C36.4799 17.3269 36.9162 17.6619 37.1812 18.1209C37.4462 18.5799 37.5182 19.1253 37.3813 19.6374L30.48 45.3974C30.4119 45.6511 30.2945 45.8889 30.1344 46.0972C29.9744 46.3056 29.7749 46.4803 29.5474 46.6116C29.0878 46.8766 28.5417 46.9483 28.0293 46.8107C27.5169 46.6731 27.0802 46.3377 26.8151 45.8781C26.5501 45.4185 26.4784 44.8724 26.616 44.36L33.52 18.6027C33.6575 18.0908 33.9925 17.6545 34.4515 17.3895C34.9105 17.1245 35.456 17.0525 35.968 17.1894ZM39.92 22.5867C40.295 22.2122 40.8033 22.0018 41.3333 22.0018C41.8633 22.0018 42.3717 22.2122 42.7467 22.5867L43.304 23.1414C44.9973 24.8347 46.4107 26.248 47.3813 27.52C48.4053 28.864 49.1253 30.2827 49.1253 32C49.1253 33.7174 48.4053 35.136 47.3813 36.48C46.4107 37.752 44.9973 39.1654 43.3013 40.8587L42.7467 41.4134C42.5636 41.6099 42.3428 41.7675 42.0974 41.8768C41.8521 41.9861 41.5873 42.0449 41.3187 42.0496C41.0502 42.0543 40.7834 42.0049 40.5344 41.9044C40.2854 41.8038 40.0591 41.654 39.8692 41.4641C39.6793 41.2742 39.5296 41.048 39.429 40.799C39.3284 40.5499 39.279 40.2832 39.2837 40.0146C39.2885 39.7461 39.3473 39.4813 39.4566 39.2359C39.5659 38.9906 39.7235 38.7698 39.92 38.5867L40.376 38.128C42.1947 36.3094 43.4133 35.088 44.2 34.0534C44.9547 33.0667 45.1253 32.4907 45.1253 32C45.1253 31.5094 44.9547 30.9334 44.2 29.9467C43.4133 28.9147 42.1947 27.6907 40.376 25.872L39.92 25.4134C39.5455 25.0384 39.3351 24.53 39.3351 24C39.3351 23.47 39.5455 22.9617 39.92 22.5867ZM21.2533 22.5867C21.6325 22.2334 22.1339 22.0411 22.652 22.0502C23.1702 22.0594 23.6645 22.2693 24.031 22.6357C24.3974 23.0021 24.6073 23.4965 24.6165 24.0146C24.6256 24.5328 24.4333 25.0342 24.08 25.4134L23.624 25.872C21.8053 27.6907 20.5893 28.912 19.8 29.9467C19.0453 30.9334 18.8773 31.5094 18.8773 32C18.8773 32.4907 19.0453 33.0667 19.8 34.0534C20.5893 35.0854 21.8053 36.3094 23.624 38.128L24.0827 38.5867C24.2736 38.7713 24.4258 38.992 24.5305 39.2361C24.6352 39.4802 24.6903 39.7426 24.6925 40.0082C24.6947 40.2737 24.6439 40.5371 24.5433 40.7828C24.4426 41.0286 24.294 41.2518 24.1061 41.4395C23.9182 41.6272 23.6948 41.7756 23.449 41.876C23.2032 41.9765 22.9398 42.027 22.6742 42.0245C22.4087 42.0221 22.1463 41.9668 21.9023 41.8619C21.6583 41.7569 21.4377 41.6045 21.2533 41.4134L20.6987 40.8587C19.0027 39.1654 17.5893 37.752 16.6187 36.48C15.5947 35.136 14.8773 33.7174 14.8773 32C14.8773 30.2827 15.5973 28.864 16.6187 27.52C17.5893 26.248 19.0027 24.8347 20.6987 23.1414L21.2533 22.5867Z" fill="#638AFF"/>
</svg>
