<svg width="73" height="72" viewBox="0 0 73 72" fill="none" xmlns="http://www.w3.org/2000/svg">
<path d="M51.5044 8.54098C55.7284 6.44998 57.8404 5.40298 59.2714 6.35098C60.6964 7.30198 60.4954 9.62098 60.0874 14.253L59.9824 15.453C59.8684 16.77 59.8114 17.43 60.0154 18.024C60.2224 18.624 60.6694 19.089 61.5604 20.025L62.3734 20.877C65.5174 24.168 67.0864 25.815 66.5704 27.501C66.0514 29.187 63.7894 29.796 59.2624 31.017L58.0924 31.332C56.8024 31.68 56.1604 31.851 55.6474 32.256C55.1344 32.658 54.8074 33.246 54.1594 34.416L53.5684 35.484C51.2854 39.612 50.1424 41.676 48.3964 41.766C46.6474 41.859 45.4504 39.918 43.0594 36.039L42.4414 35.034C41.7604 33.933 41.4214 33.384 40.8994 33.033C40.3744 32.685 39.7294 32.58 38.4334 32.37L37.2574 32.178C32.7034 31.437 30.4264 31.068 29.8654 29.436C29.3014 27.807 30.8254 25.998 33.8764 22.38L34.6624 21.444C35.5324 20.415 35.9644 19.902 36.1534 19.284C36.3424 18.666 36.2674 18.015 36.1174 16.713L35.9794 15.525C35.4484 10.941 35.1844 8.64898 36.5854 7.55098C37.9864 6.45298 40.1254 7.27198 44.4004 8.91598L45.5044 9.34198C46.7194 9.80998 47.3284 10.044 47.9674 10.008C48.6094 9.97798 49.2094 9.67798 50.4094 9.08398L51.5044 8.54098Z" fill="#638AFF"/>
<path opacity="0.5" d="M27.8015 33.96C18.6365 39.81 10.4765 50.391 6.9365 60.096C5.7875 63.246 8.4365 66.003 11.8145 66.003H14.9165C14.9165 64.95 15.1625 63.642 15.5285 62.268C15.9035 60.858 16.4435 59.229 17.1185 57.486C18.6584 53.5445 20.5166 49.735 22.6745 46.095C24.9635 42.255 27.6845 38.511 30.6695 35.697L30.8915 35.49L30.6845 35.424C29.6454 35.108 28.6696 34.6126 27.8015 33.96ZM36.7265 36.651C35.7665 37.235 34.7765 38.009 33.7565 38.973C31.1855 41.394 28.7105 44.757 26.5415 48.399C24.5067 51.8175 22.7587 55.3987 21.3155 59.106C20.6855 60.735 20.1995 62.205 19.8755 63.426C19.5455 64.68 19.4165 65.538 19.4165 66.003H27.9155C27.9155 62.631 29.0855 56.385 31.1975 50.127C32.7485 45.537 34.8965 40.668 37.6625 36.807L36.7265 36.651ZM40.5605 40.539C38.5355 43.671 36.8105 47.577 35.4605 51.567C33.4265 57.588 32.4155 63.312 32.4155 66.003H36.2825C39.6605 66.003 42.3785 63.282 42.6035 59.943C42.9935 54.198 43.8785 49.023 44.8895 45.342C43.9993 44.8011 43.2062 44.1146 42.5435 43.311C41.8258 42.4296 41.1615 41.5037 40.5605 40.539Z" fill="#638AFF"/>
</svg>
