<svg width="24" height="24" viewBox="0 0 24 24" fill="none" xmlns="http://www.w3.org/2000/svg">
<path fill-rule="evenodd" clip-rule="evenodd" d="M4.42993 8.512C4.49406 8.43717 4.5723 8.37572 4.66019 8.33115C4.74808 8.28658 4.84389 8.25977 4.94215 8.25225C5.0404 8.24473 5.13918 8.25664 5.23283 8.28731C5.32647 8.31798 5.41316 8.36681 5.48793 8.431L11.9999 14.012L18.5119 8.431C18.6638 8.30912 18.857 8.25107 19.0509 8.2691C19.2447 8.28713 19.424 8.37984 19.5507 8.52762C19.6775 8.6754 19.7418 8.86668 19.7301 9.06101C19.7183 9.25535 19.6315 9.43751 19.4879 9.569L12.4879 15.569C12.352 15.6855 12.1789 15.7495 11.9999 15.7495C11.8209 15.7495 11.6479 15.6855 11.5119 15.569L4.51193 9.569C4.36112 9.43951 4.26787 9.25545 4.25268 9.05726C4.23749 8.85907 4.30161 8.66295 4.43093 8.512" fill="black"/>
</svg>
