<svg width="64" height="64" viewBox="0 0 64 64" fill="none" xmlns="http://www.w3.org/2000/svg">
<path opacity="0.5" d="M34.2187 58.136C42.5547 56.4667 53.3333 50.4693 53.3333 34.9627C53.3333 20.8533 43.0053 11.456 35.5787 7.13866C33.928 6.17866 32 7.43999 32 9.34666V14.2213C32 18.0667 30.384 25.0853 25.8933 28.0053C23.6 29.496 21.12 27.264 20.8427 24.544L20.6133 22.3093C20.3467 19.712 17.7013 18.136 15.6267 19.72C11.896 22.56 8 27.5467 8 34.96C8 53.9227 22.104 58.6667 29.1547 58.6667C29.5671 58.6667 29.9973 58.6533 30.4453 58.6267C31.6347 58.4773 30.4453 58.8907 34.2187 58.1333" fill="#638AFF"/>
<path d="M21.3334 49.184C21.3334 56.1707 26.9627 58.3307 30.4454 58.6293C31.6347 58.48 30.4454 58.8933 34.2187 58.136C36.9894 57.1573 40 54.6453 40 49.184C40 45.7253 37.816 43.5893 36.1067 42.5893C35.584 42.2827 34.976 42.6693 34.9307 43.272C34.7814 45.1867 32.9414 46.712 31.6907 45.256C30.584 43.9707 30.1174 42.0907 30.1174 40.888V39.3147C30.1174 38.3707 29.1654 37.7413 28.3494 38.2267C25.32 40.0213 21.3334 43.7173 21.3334 49.184Z" fill="#638AFF"/>
</svg>
