<svg width="64" height="64" viewBox="0 0 64 64" fill="none" xmlns="http://www.w3.org/2000/svg">
<path d="M54.0534 43.3733L55.9334 32.4933C56.0437 31.8557 56.0134 31.2016 55.8445 30.5768C55.6756 29.9521 55.3723 29.3718 54.9558 28.8765C54.5392 28.3812 54.0195 27.9829 53.433 27.7094C52.8464 27.436 52.2072 27.294 51.56 27.2933H37.7414C37.4192 27.293 37.1009 27.2226 36.8086 27.087C36.5163 26.9514 36.257 26.7538 36.0488 26.508C35.8405 26.2621 35.6882 25.9739 35.6024 25.6633C35.5166 25.3528 35.4994 25.0272 35.552 24.7093L37.32 13.9227C37.6056 12.1712 37.5239 10.3795 37.08 8.66134C36.8882 7.95172 36.5205 7.30191 36.0111 6.77197C35.5017 6.24203 34.8669 5.84904 34.1654 5.62934L33.7787 5.50401C32.9052 5.22498 31.9581 5.28984 31.1307 5.68534C30.224 6.12267 29.5627 6.92001 29.3174 7.86667L28.048 12.7573C27.6446 14.3139 27.0574 15.8169 26.2987 17.2347C25.1894 19.3067 23.4774 20.968 21.6987 22.5013L17.8587 25.808C17.3263 26.268 16.9106 26.8477 16.6454 27.4994C16.3803 28.1511 16.2734 28.8563 16.3334 29.5573L18.5014 54.6053C18.5968 55.7126 19.1037 56.744 19.9222 57.4958C20.7407 58.2477 21.8113 58.6654 22.9227 58.6667H35.32C44.6027 58.6667 52.5254 52.1973 54.0507 43.3733" fill="#638AFF"/>
<path opacity="0.5" fill-rule="evenodd" clip-rule="evenodd" d="M7.91463 25.2934C8.42999 25.2708 8.93412 25.4483 9.32173 25.7887C9.70933 26.1291 9.95042 26.6061 9.99463 27.12L12.5813 57.0827C12.6251 57.5289 12.5775 57.9793 12.4414 58.4065C12.3053 58.8337 12.0835 59.2286 11.7897 59.5672C11.4958 59.9058 11.136 60.181 10.7322 60.3758C10.3285 60.5707 9.88922 60.6812 9.4413 60.7006C8.99339 60.7201 8.54621 60.648 8.1271 60.4888C7.70798 60.3296 7.32571 60.0866 7.00364 59.7747C6.68157 59.4628 6.42647 59.0886 6.2539 58.6748C6.08133 58.261 5.99493 57.8163 5.99996 57.368V27.2907C6.00018 26.7752 6.19945 26.2797 6.55619 25.9075C6.91293 25.5354 7.39959 25.3153 7.91463 25.2934Z" fill="#638AFF"/>
</svg>
