<svg width="32" height="32" viewBox="0 0 32 32" fill="none" xmlns="http://www.w3.org/2000/svg">
<rect width="32" height="32" rx="16" fill="#FDFEFE"/>
<path fill-rule="evenodd" clip-rule="evenodd" d="M22.4809 9.69164C22.6868 9.60496 22.9122 9.57507 23.1336 9.60507C23.355 9.63507 23.5643 9.72386 23.7398 9.86221C23.9152 10.0006 24.0504 10.1834 24.1312 10.3917C24.212 10.6 24.2355 10.8262 24.1992 11.0466L22.3092 22.5108C22.1259 23.6166 20.9125 24.2508 19.8984 23.7C19.05 23.2391 17.79 22.5291 16.6567 21.7883C16.09 21.4175 14.3542 20.23 14.5675 19.385C14.7509 18.6625 17.6675 15.9475 19.3342 14.3333C19.9884 13.6991 19.69 13.3333 18.9175 13.9166C16.9992 15.365 13.9192 17.5675 12.9009 18.1875C12.0025 18.7341 11.5342 18.8275 10.9742 18.7341C9.95254 18.5641 9.00504 18.3008 8.2317 17.98C7.1867 17.5466 7.23754 16.11 8.23087 15.6916L22.4809 9.69164Z" fill="#0B0B0B"/>
</svg>
