<svg width="62" height="60" viewBox="0 0 62 60" fill="none" xmlns="http://www.w3.org/2000/svg">
<path d="M21.9507 22.1875C23.146 22.2109 24.2124 22.5859 25.1499 23.3125C26.0874 24.0391 26.8374 24.9062 27.3999 25.9141C27.9858 26.9219 28.4194 27.9883 28.7007 29.1133C28.9819 30.2383 29.1226 31.3867 29.1226 32.5586C29.1226 34.1055 28.8765 35.6289 28.3843 37.1289C27.9155 38.6055 27.1304 39.918 26.0288 41.0664C24.9507 42.2148 23.5913 42.8359 21.9507 42.9297H10.8062C9.16553 42.8594 7.79443 42.25 6.69287 41.1016C5.59131 39.9531 4.80615 38.6289 4.3374 37.1289C3.89209 35.6289 3.66943 34.1055 3.66943 32.5586C3.66943 31.0117 3.90381 29.5 4.37256 28.0234C4.84131 26.5234 5.61475 25.1992 6.69287 24.0508C7.79443 22.8789 9.16553 22.2578 10.8062 22.1875H11.4741H21.2827H21.9507ZM20.7554 38.2188C21.646 38.1719 22.3843 37.8438 22.9702 37.2344C23.5796 36.6016 24.0132 35.875 24.271 35.0547C24.5288 34.2344 24.6577 33.4023 24.6577 32.5586C24.6577 31.7148 24.5171 30.8945 24.2358 30.0977C23.978 29.2773 23.5562 28.5508 22.9702 27.918C22.3843 27.2852 21.646 26.9453 20.7554 26.8984H11.896C11.0054 26.9453 10.2671 27.2852 9.68115 27.918C9.09521 28.5508 8.66162 29.2773 8.38037 30.0977C8.12256 30.8945 7.99365 31.7148 7.99365 32.5586C7.99365 33.4023 8.12256 34.2344 8.38037 35.0547C8.63818 35.875 9.06006 36.6016 9.646 37.2344C10.2554 37.8438 11.0054 38.1719 11.896 38.2188H20.7554ZM33.2794 40.5039C33.2794 39.8477 33.5138 39.2969 33.9826 38.8516C34.4279 38.3828 34.9787 38.1484 35.6349 38.1484H49.838C50.2833 38.125 50.6466 38.0195 50.9279 37.832C51.2326 37.6445 51.4552 37.4336 51.5958 37.1992C51.7365 36.9648 51.8068 36.7188 51.8068 36.4609C51.8068 36.2031 51.7365 35.957 51.5958 35.7227C51.4552 35.4883 51.2326 35.2773 50.9279 35.0898C50.6466 34.9023 50.2833 34.7969 49.838 34.7734H35.7052C35.049 34.7734 34.4982 34.5391 34.0529 34.0703C33.5841 33.625 33.3497 33.0742 33.3497 32.418C33.3497 31.7617 33.5724 31.2109 34.0177 30.7656C34.4865 30.2969 35.049 30.0625 35.7052 30.0625H49.6271C49.6505 30.0625 49.674 30.0625 49.6974 30.0625C50.1427 30.0391 50.506 29.9453 50.7872 29.7812C51.0919 29.5938 51.3146 29.3828 51.4552 29.1484C51.5958 28.9141 51.6662 28.668 51.6662 28.4102C51.6662 28.1758 51.5958 27.9414 51.4552 27.707C51.3146 27.4727 51.0919 27.2734 50.7872 27.1094C50.506 26.9219 50.1427 26.8164 49.6974 26.793H35.5646C34.9083 26.793 34.3576 26.5586 33.9122 26.0898C33.4435 25.668 33.2091 25.1289 33.2091 24.4727C33.2091 23.8398 33.4318 23.3008 33.8771 22.8555C34.3458 22.4102 34.9083 22.1875 35.5646 22.1875H49.4865C51.1271 22.2109 52.4747 22.5742 53.5294 23.2773C54.6076 23.957 55.3693 24.7539 55.8146 25.668C56.2833 26.582 56.5177 27.4961 56.5177 28.4102C56.5177 29.3242 56.2833 30.2266 55.8146 31.1172C55.6037 31.5391 55.3341 31.9258 55.006 32.2773C55.4044 32.6992 55.7326 33.1445 55.9904 33.6133C56.4357 34.5508 56.6583 35.5 56.6583 36.4609C56.6583 37.375 56.424 38.3008 55.9552 39.2383C55.4865 40.1523 54.7247 40.9727 53.6701 41.6992C52.6154 42.4023 51.2677 42.7773 49.6271 42.8242H49.4162C49.2755 42.8477 49.1349 42.8594 48.9943 42.8594H35.6349C34.9787 42.8594 34.4162 42.6367 33.9474 42.1914C33.5021 41.7227 33.2794 41.1602 33.2794 40.5039Z" fill="#011755"/>
</svg>
