<svg width="32" height="32" viewBox="0 0 32 32" fill="none" xmlns="http://www.w3.org/2000/svg">
<rect width="32" height="32" rx="16" fill="#FDFEFE"/>
<path d="M24.9238 11.1979C25.0522 10.7638 24.9238 10.4444 24.3057 10.4444H22.2606C21.7397 10.4444 21.5002 10.7187 21.3717 11.0243C21.3717 11.0243 20.33 13.5625 18.8578 15.2083C18.3821 15.684 18.1634 15.8368 17.9029 15.8368C17.7745 15.8368 17.5766 15.684 17.5766 15.25V11.1979C17.5766 10.677 17.4307 10.4444 17.0002 10.4444H13.7849C13.4585 10.4444 13.2641 10.6875 13.2641 10.9131C13.2641 11.4062 14.0002 11.5208 14.0766 12.9097V15.9236C14.0766 16.5833 13.9585 16.7048 13.6981 16.7048C13.0036 16.7048 11.3161 14.1562 10.3161 11.2395C10.1147 10.6736 9.91683 10.4444 9.39252 10.4444H7.34738C6.76405 10.4444 6.646 10.7187 6.646 11.0243C6.646 11.5659 7.34044 14.2569 9.87863 17.8125C11.5696 20.2395 13.9516 21.5555 16.1182 21.5555C17.4203 21.5555 17.58 21.2638 17.58 20.7604C17.58 18.4409 17.462 18.2222 18.1147 18.2222C18.4168 18.2222 18.9377 18.375 20.1529 19.5451C21.5418 20.934 21.771 21.5555 22.5488 21.5555H24.5939C25.1772 21.5555 25.4724 21.2638 25.3022 20.6875C24.9134 19.4756 22.2849 16.9826 22.1668 16.8159C21.8647 16.427 21.9516 16.2534 22.1668 15.9062C22.1703 15.9027 24.6668 12.3888 24.9238 11.1979Z" fill="#0B0B0B"/>
</svg>
